<svg width="813" height="443" viewBox="0 0 813 443" fill="none" xmlns="http://www.w3.org/2000/svg">
<mask id="mask0" mask-type="alpha" maskUnits="userSpaceOnUse" x="0" y="0" width="813" height="443">
<path d="M0 40C0 17.9086 17.9086 0 40 0H772.5C794.591 0 812.5 17.9086 812.5 40V402.5C812.5 424.591 794.591 442.5 772.5 442.5H40C17.9086 442.5 0 424.591 0 402.5L0 40Z" fill="#654CF0"/>
</mask>
<g mask="url(#mask0)">
<path d="M0 40C0 17.9086 17.9086 0 40 0H773C795.091 0 813 17.9086 813 40V403C813 425.091 795.091 443 773 443H40C17.9086 443 0 425.091 0 403V40Z" fill="white"/>
<path d="M-296.618 843.044C-470.393 978.903 -590.796 734.177 -647.286 631.297C-703.775 528.416 -737.516 426.872 -666.508 226.575C-544.135 -118.612 -541.136 -99.6116 -581.033 -397.707C-620.929 -695.802 -379.925 -731.543 -295.692 -722.564C-176.698 -709.88 -103.94 -476.36 74.8259 -580.283C253.592 -684.207 127.035 -601.39 276.563 -355.773C426.091 -110.157 329.478 35.3937 307.335 155.448C265.598 381.737 356.468 478.5 217.668 632.097C92.0697 771.085 -118.148 586.398 -296.618 843.044Z" fill="#513CC5"/>
</g>
</svg>
