<svg width="258" height="370" viewBox="0 0 258 370" fill="none" xmlns="http://www.w3.org/2000/svg">
<path d="M0.856266 355.808C0.481837 354.572 0.223805 353.285 0.0949256 351.961L1.09022 351.864C1.03056 351.251 1 350.629 1 350V347.988H0V343.963H1V339.939H0V335.914H1V331.89H0V327.866H1V323.841H0V319.817H1V315.792H0V311.768H1V307.744H0V303.719H1V299.695H0V295.671H1V291.646H0V287.622H1V283.597H0V279.573H1V275.549H0V271.524H1V267.5H0V263.475H1V259.451H0V255.427H1V251.402H0V247.378H1V243.354H0V239.329H1V235.305H0V231.28H1V227.256H0V223.232H1V219.207H0V215.183H1V211.158H0V207.134H1V203.11H0V199.085H1V195.061H0V191.037H1V187.012H0V182.988H1V178.963H0V174.939H1V170.915H0V166.89H1V162.866H0V158.841H1V154.817H0V150.793H1V146.768H0V142.744H1V138.72H0V134.695H1V130.671H0V126.646H1V122.622H0V118.598H1V114.573H0V110.549H1V106.524H0V102.5H1V98.4756H0V94.4512H1V90.4268H0V86.4025H1V82.3781H0V78.3537H1V74.3293H0V70.3049H1V66.2805H0V62.2561H1V58.2317H0V54.2073H1V50.1829H0V46.1585H1V42.1342H0V38.1098H1V34.0854H0V30.061H1V26.0366H0V22.0122H1V20C1 19.3707 1.03056 18.7488 1.09022 18.1358L0.0949265 18.0389C0.223806 16.7146 0.481837 15.4282 0.856264 14.1923L1.8133 14.4823C2.17719 13.2812 2.6569 12.1303 3.23954 11.0426L2.35802 10.5704C2.9789 9.41121 3.71069 8.32034 4.5392 7.31194L5.31185 7.94677C6.10209 6.98496 6.98496 6.1021 7.94677 5.31186L7.31194 4.5392C8.32033 3.71069 9.4112 2.9789 10.5704 2.35802L11.0425 3.23954C12.1303 2.6569 13.2812 2.1772 14.4823 1.81331L14.1923 0.856266C15.4282 0.481838 16.7146 0.223806 18.0389 0.0949267L18.1358 1.09022C18.7488 1.03056 19.3707 1 20 1H22.0187V0H26.0557V1H30.0927V0H34.1298V1H38.1668V0H42.2038V1H46.2409V0H50.2779V1H54.3149V0H58.352V1H62.389V0H66.426V1H70.4631V0H74.5001V1H78.5371V0H82.5742V1H86.6112V0H90.6482V1H94.6852V0H98.7223V1H102.759V0H106.796V1H110.833V0H114.87V1H118.907V0H122.944V1H126.982V0H131.019V1H135.056V0H139.093V1H143.13V0H147.167V1H151.204V0H155.241V1H159.278V0H163.315V1H167.352V0H171.389V1H175.426V0H179.463V1H183.5V0H187.537V1H191.574V0H195.611V1H199.648V0H203.685V1H207.722V0H211.759V1H215.796V0H219.833V1H223.87V0H227.907V1H231.944V0H235.981V1H238C238.629 1 239.251 1.03056 239.864 1.09022L239.961 0.0949269C241.285 0.223806 242.572 0.481837 243.808 0.856262L243.518 1.8133C244.719 2.17719 245.87 2.6569 246.957 3.23953L247.43 2.35802C248.589 2.9789 249.68 3.71069 250.688 4.5392L250.053 5.31185C251.015 6.10209 251.898 6.98496 252.688 7.94676L253.461 7.31194C254.289 8.32033 255.021 9.4112 255.642 10.5704L254.76 11.0425C255.343 12.1303 255.823 13.2812 256.187 14.4823L257.144 14.1923C257.518 15.4282 257.776 16.7146 257.905 18.0389L256.91 18.1358C256.969 18.7488 257 19.3707 257 20V22.0125H258V26.0369H257V30.0612H258V34.0856H257V38.11H258V42.1344H257V46.1588H258V50.1832H257V54.2076H258V58.2319H257V62.2563H258V66.2807H257V70.3051H258V74.3295H257V78.3539H258V82.3782H257V86.4026H258V90.427H257V94.4514H258V98.4758H257V102.5H258V106.525H257V110.549H258V114.573H257V118.598H258V122.622H257V126.646H258V130.671H257V134.695H258V138.72H257V142.744H258V146.768H257V150.793H258V154.817H257V158.842H258V162.866H257V166.89H258V170.915H257V174.939H258V178.963H257V182.988H258V187.012H257V191.037H258V195.061H257V199.085H258V203.11H257V207.134H258V211.159H257V215.183H258V219.207H257V223.232H258V227.256H257V231.28H258V235.305H257V239.329H258V243.354H257V247.378H258V251.402H257V255.427H258V259.451H257V263.476H258V267.5H257V271.524H258V275.549H257V279.573H258V283.598H257V287.622H258V291.646H257V295.671H258V299.695H257V303.72H258V307.744H257V311.768H258V315.793H257V319.817H258V323.841H257V327.866H258V331.89H257V335.915H258V339.939H257V343.963H258V347.988H257V350C257 350.629 256.969 351.251 256.91 351.864L257.905 351.961C257.776 353.285 257.518 354.572 257.144 355.808L256.187 355.518C255.823 356.719 255.343 357.87 254.76 358.957L255.642 359.43C255.021 360.589 254.289 361.68 253.461 362.688L252.688 362.053C251.898 363.015 251.015 363.898 250.053 364.688L250.688 365.461C249.68 366.289 248.589 367.021 247.43 367.642L246.957 366.76C245.87 367.343 244.719 367.823 243.518 368.187L243.808 369.144C242.572 369.518 241.285 369.776 239.961 369.905L239.864 368.91C239.251 368.969 238.629 369 238 369H235.981V370H231.944V369H227.907V370H223.87V369H219.833V370H215.796V369H211.759V370H207.722V369H203.685V370H199.648V369H195.611V370H191.574V369H187.537V370H183.5V369H179.463V370H175.426V369H171.389V370H167.352V369H163.315V370H159.278V369H155.241V370H151.204V369H147.167V370H143.13V369H139.093V370H135.055V369H131.018V370H126.981V369H122.944V370H118.907V369H114.87V370H110.833V369H106.796V370H102.759V369H98.7222V370H94.6852V369H90.6481V370H86.6111V369H82.5741V370H78.537V369H74.5V370H70.463V369H66.4259V370H62.3889V369H58.3518V370H54.3148V369H50.2778V370H46.2407V369H42.2037V370H38.1667V369H34.1296V370H30.0926V369H26.0555V370H22.0185V369H20C19.3707 369 18.7488 368.969 18.1358 368.91L18.0389 369.905C16.7146 369.776 15.4282 369.518 14.1923 369.144L14.4823 368.187C13.2812 367.823 12.1303 367.343 11.0425 366.76L10.5704 367.642C9.41121 367.021 8.32033 366.289 7.31194 365.461L7.94676 364.688C6.98496 363.898 6.10209 363.015 5.31185 362.053L4.53919 362.688C3.71068 361.68 2.9789 360.589 2.35802 359.43L3.23954 358.957C2.6569 357.87 2.1772 356.719 1.81331 355.518L0.856266 355.808Z" fill="#F1F0F8" stroke="#C9C0FA" stroke-width="2" stroke-dasharray="4 4"/>
<path d="M58.2841 188.563H63.0041C64.1881 188.563 65.2387 188.798 66.1561 189.267C67.0734 189.737 67.7827 190.398 68.2841 191.251C68.7961 192.094 69.0521 193.065 69.0521 194.163C69.0521 195.262 68.7961 196.238 68.2841 197.091C67.7827 197.934 67.0734 198.59 66.1561 199.059C65.2387 199.529 64.1881 199.763 63.0041 199.763H58.2841V188.563ZM62.9081 198.371C63.8147 198.371 64.6094 198.195 65.2921 197.843C65.9854 197.491 66.5187 197.001 66.8921 196.371C67.2654 195.731 67.4521 194.995 67.4521 194.163C67.4521 193.331 67.2654 192.601 66.8921 191.971C66.5187 191.331 65.9854 190.835 65.2921 190.483C64.6094 190.131 63.8147 189.955 62.9081 189.955H59.8841V198.371H62.9081ZM73.0708 192.707C73.3375 192.217 73.7321 191.843 74.2548 191.587C74.7775 191.331 75.4121 191.203 76.1588 191.203V192.691C76.0735 192.681 75.9561 192.675 75.8068 192.675C74.9748 192.675 74.3188 192.926 73.8388 193.427C73.3695 193.918 73.1348 194.622 73.1348 195.539V199.763H71.5988V191.283H73.0708V192.707ZM81.4443 191.203C82.6176 191.203 83.5136 191.491 84.1323 192.067C84.7616 192.643 85.0763 193.502 85.0763 194.643V199.763H83.6203V198.643C83.3643 199.038 82.9963 199.342 82.5163 199.555C82.047 199.758 81.487 199.859 80.8363 199.859C79.887 199.859 79.1243 199.63 78.5483 199.171C77.983 198.713 77.7003 198.11 77.7003 197.363C77.7003 196.617 77.9723 196.019 78.5163 195.571C79.0603 195.113 79.9243 194.883 81.1083 194.883H83.5403V194.579C83.5403 193.918 83.3483 193.411 82.9643 193.059C82.5803 192.707 82.015 192.531 81.2683 192.531C80.767 192.531 80.2763 192.617 79.7963 192.787C79.3163 192.947 78.911 193.166 78.5803 193.443L77.9403 192.291C78.3776 191.939 78.9003 191.673 79.5083 191.491C80.1163 191.299 80.7616 191.203 81.4443 191.203ZM81.0923 198.675C81.679 198.675 82.1856 198.547 82.6123 198.291C83.039 198.025 83.3483 197.651 83.5403 197.171V195.987H81.1723C79.871 195.987 79.2203 196.425 79.2203 197.299C79.2203 197.726 79.3856 198.062 79.7163 198.307C80.047 198.553 80.5056 198.675 81.0923 198.675ZM96.3977 191.283V198.611C96.3977 200.094 96.0297 201.187 95.2937 201.891C94.5577 202.606 93.459 202.963 91.9977 202.963C91.1977 202.963 90.435 202.851 89.7097 202.627C88.9844 202.414 88.3977 202.105 87.9497 201.699L88.6857 200.515C89.0804 200.857 89.5657 201.123 90.1417 201.315C90.7284 201.518 91.331 201.619 91.9497 201.619C92.9417 201.619 93.6724 201.385 94.1417 200.915C94.6217 200.446 94.8617 199.731 94.8617 198.771V198.099C94.499 198.537 94.051 198.867 93.5177 199.091C92.995 199.305 92.4244 199.411 91.8057 199.411C90.995 199.411 90.259 199.241 89.5977 198.899C88.947 198.547 88.435 198.062 88.0617 197.443C87.6884 196.814 87.5017 196.099 87.5017 195.299C87.5017 194.499 87.6884 193.79 88.0617 193.171C88.435 192.542 88.947 192.057 89.5977 191.715C90.259 191.374 90.995 191.203 91.8057 191.203C92.4457 191.203 93.0377 191.321 93.5817 191.555C94.1364 191.79 94.5897 192.137 94.9417 192.595V191.283H96.3977ZM91.9817 198.067C92.5364 198.067 93.0324 197.95 93.4697 197.715C93.9177 197.481 94.2644 197.155 94.5097 196.739C94.7657 196.313 94.8937 195.833 94.8937 195.299C94.8937 194.478 94.6217 193.817 94.0777 193.315C93.5337 192.803 92.835 192.547 91.9817 192.547C91.1177 192.547 90.4137 192.803 89.8697 193.315C89.3257 193.817 89.0537 194.478 89.0537 195.299C89.0537 195.833 89.1764 196.313 89.4217 196.739C89.6777 197.155 90.0244 197.481 90.4617 197.715C90.9097 197.95 91.4164 198.067 91.9817 198.067ZM107.357 191.203C108.531 191.203 109.427 191.491 110.045 192.067C110.675 192.643 110.989 193.502 110.989 194.643V199.763H109.533V198.643C109.277 199.038 108.909 199.342 108.429 199.555C107.96 199.758 107.4 199.859 106.749 199.859C105.8 199.859 105.037 199.63 104.461 199.171C103.896 198.713 103.613 198.11 103.613 197.363C103.613 196.617 103.885 196.019 104.429 195.571C104.973 195.113 105.837 194.883 107.021 194.883H109.453V194.579C109.453 193.918 109.261 193.411 108.877 193.059C108.493 192.707 107.928 192.531 107.181 192.531C106.68 192.531 106.189 192.617 105.709 192.787C105.229 192.947 104.824 193.166 104.493 193.443L103.853 192.291C104.291 191.939 104.813 191.673 105.421 191.491C106.029 191.299 106.675 191.203 107.357 191.203ZM107.005 198.675C107.592 198.675 108.099 198.547 108.525 198.291C108.952 198.025 109.261 197.651 109.453 197.171V195.987H107.085C105.784 195.987 105.133 196.425 105.133 197.299C105.133 197.726 105.299 198.062 105.629 198.307C105.96 198.553 106.419 198.675 107.005 198.675ZM118.68 191.203C119.757 191.203 120.611 191.518 121.24 192.147C121.88 192.766 122.2 193.678 122.2 194.883V199.763H120.664V195.059C120.664 194.238 120.467 193.619 120.072 193.203C119.677 192.787 119.112 192.579 118.376 192.579C117.544 192.579 116.888 192.825 116.408 193.315C115.928 193.795 115.688 194.489 115.688 195.395V199.763H114.152V191.283H115.624V192.563C115.933 192.126 116.349 191.79 116.872 191.555C117.405 191.321 118.008 191.203 118.68 191.203ZM133.409 187.891V199.763H131.937V198.419C131.596 198.889 131.164 199.246 130.641 199.491C130.119 199.737 129.543 199.859 128.913 199.859C128.092 199.859 127.356 199.678 126.705 199.315C126.055 198.953 125.543 198.446 125.169 197.795C124.807 197.134 124.625 196.377 124.625 195.523C124.625 194.67 124.807 193.918 125.169 193.267C125.543 192.617 126.055 192.11 126.705 191.747C127.356 191.385 128.092 191.203 128.913 191.203C129.521 191.203 130.081 191.321 130.593 191.555C131.105 191.779 131.532 192.115 131.873 192.563V187.891H133.409ZM129.041 198.515C129.575 198.515 130.06 198.393 130.497 198.147C130.935 197.891 131.276 197.539 131.521 197.091C131.767 196.633 131.889 196.11 131.889 195.523C131.889 194.937 131.767 194.419 131.521 193.971C131.276 193.513 130.935 193.161 130.497 192.915C130.06 192.67 129.575 192.547 129.041 192.547C128.497 192.547 128.007 192.67 127.569 192.915C127.143 193.161 126.801 193.513 126.545 193.971C126.3 194.419 126.177 194.937 126.177 195.523C126.177 196.11 126.3 196.633 126.545 197.091C126.801 197.539 127.143 197.891 127.569 198.147C128.007 198.393 128.497 198.515 129.041 198.515ZM149.253 187.891V199.763H147.781V198.419C147.439 198.889 147.007 199.246 146.485 199.491C145.962 199.737 145.386 199.859 144.757 199.859C143.935 199.859 143.199 199.678 142.549 199.315C141.898 198.953 141.386 198.446 141.013 197.795C140.65 197.134 140.469 196.377 140.469 195.523C140.469 194.67 140.65 193.918 141.013 193.267C141.386 192.617 141.898 192.11 142.549 191.747C143.199 191.385 143.935 191.203 144.757 191.203C145.365 191.203 145.925 191.321 146.437 191.555C146.949 191.779 147.375 192.115 147.717 192.563V187.891H149.253ZM144.885 198.515C145.418 198.515 145.903 198.393 146.341 198.147C146.778 197.891 147.119 197.539 147.365 197.091C147.61 196.633 147.733 196.11 147.733 195.523C147.733 194.937 147.61 194.419 147.365 193.971C147.119 193.513 146.778 193.161 146.341 192.915C145.903 192.67 145.418 192.547 144.885 192.547C144.341 192.547 143.85 192.67 143.413 192.915C142.986 193.161 142.645 193.513 142.389 193.971C142.143 194.419 142.021 194.937 142.021 195.523C142.021 196.11 142.143 196.633 142.389 197.091C142.645 197.539 142.986 197.891 143.413 198.147C143.85 198.393 144.341 198.515 144.885 198.515ZM153.951 192.707C154.217 192.217 154.612 191.843 155.135 191.587C155.657 191.331 156.292 191.203 157.039 191.203V192.691C156.953 192.681 156.836 192.675 156.687 192.675C155.855 192.675 155.199 192.926 154.719 193.427C154.249 193.918 154.015 194.622 154.015 195.539V199.763H152.479V191.283H153.951V192.707ZM162.806 199.859C161.963 199.859 161.206 199.673 160.534 199.299C159.862 198.926 159.334 198.414 158.95 197.763C158.576 197.102 158.39 196.355 158.39 195.523C158.39 194.691 158.576 193.95 158.95 193.299C159.334 192.638 159.862 192.126 160.534 191.763C161.206 191.39 161.963 191.203 162.806 191.203C163.648 191.203 164.4 191.39 165.062 191.763C165.734 192.126 166.256 192.638 166.63 193.299C167.014 193.95 167.206 194.691 167.206 195.523C167.206 196.355 167.014 197.102 166.63 197.763C166.256 198.414 165.734 198.926 165.062 199.299C164.4 199.673 163.648 199.859 162.806 199.859ZM162.806 198.515C163.35 198.515 163.835 198.393 164.262 198.147C164.699 197.891 165.04 197.539 165.286 197.091C165.531 196.633 165.654 196.11 165.654 195.523C165.654 194.937 165.531 194.419 165.286 193.971C165.04 193.513 164.699 193.161 164.262 192.915C163.835 192.67 163.35 192.547 162.806 192.547C162.262 192.547 161.771 192.67 161.334 192.915C160.907 193.161 160.566 193.513 160.31 193.971C160.064 194.419 159.942 194.937 159.942 195.523C159.942 196.11 160.064 196.633 160.31 197.091C160.566 197.539 160.907 197.891 161.334 198.147C161.771 198.393 162.262 198.515 162.806 198.515ZM174.146 191.203C174.967 191.203 175.703 191.385 176.354 191.747C177.005 192.11 177.511 192.617 177.874 193.267C178.247 193.918 178.434 194.67 178.434 195.523C178.434 196.377 178.247 197.134 177.874 197.795C177.511 198.446 177.005 198.953 176.354 199.315C175.703 199.678 174.967 199.859 174.146 199.859C173.538 199.859 172.978 199.742 172.466 199.507C171.965 199.273 171.538 198.931 171.186 198.483V202.867H169.65V191.283H171.122V192.627C171.463 192.158 171.895 191.806 172.418 191.571C172.941 191.326 173.517 191.203 174.146 191.203ZM174.018 198.515C174.562 198.515 175.047 198.393 175.474 198.147C175.911 197.891 176.253 197.539 176.498 197.091C176.754 196.633 176.882 196.11 176.882 195.523C176.882 194.937 176.754 194.419 176.498 193.971C176.253 193.513 175.911 193.161 175.474 192.915C175.047 192.67 174.562 192.547 174.018 192.547C173.485 192.547 172.999 192.675 172.562 192.931C172.135 193.177 171.794 193.523 171.538 193.971C171.293 194.419 171.17 194.937 171.17 195.523C171.17 196.11 171.293 196.633 171.538 197.091C171.783 197.539 172.125 197.891 172.562 198.147C172.999 198.393 173.485 198.515 174.018 198.515ZM189.125 199.859C188.283 199.859 187.525 199.673 186.853 199.299C186.181 198.926 185.653 198.414 185.269 197.763C184.896 197.102 184.709 196.355 184.709 195.523C184.709 194.691 184.896 193.95 185.269 193.299C185.653 192.638 186.181 192.126 186.853 191.763C187.525 191.39 188.283 191.203 189.125 191.203C189.968 191.203 190.72 191.39 191.381 191.763C192.053 192.126 192.576 192.638 192.949 193.299C193.333 193.95 193.525 194.691 193.525 195.523C193.525 196.355 193.333 197.102 192.949 197.763C192.576 198.414 192.053 198.926 191.381 199.299C190.72 199.673 189.968 199.859 189.125 199.859ZM189.125 198.515C189.669 198.515 190.155 198.393 190.581 198.147C191.019 197.891 191.36 197.539 191.605 197.091C191.851 196.633 191.973 196.11 191.973 195.523C191.973 194.937 191.851 194.419 191.605 193.971C191.36 193.513 191.019 193.161 190.581 192.915C190.155 192.67 189.669 192.547 189.125 192.547C188.581 192.547 188.091 192.67 187.653 192.915C187.227 193.161 186.885 193.513 186.629 193.971C186.384 194.419 186.261 194.937 186.261 195.523C186.261 196.11 186.384 196.633 186.629 197.091C186.885 197.539 187.227 197.891 187.653 198.147C188.091 198.393 188.581 198.515 189.125 198.515ZM197.441 192.707C197.708 192.217 198.103 191.843 198.625 191.587C199.148 191.331 199.783 191.203 200.529 191.203V192.691C200.444 192.681 200.327 192.675 200.177 192.675C199.345 192.675 198.689 192.926 198.209 193.427C197.74 193.918 197.505 194.622 197.505 195.539V199.763H195.969V191.283H197.441V192.707ZM69.4956 212.203C70.6689 212.203 71.5649 212.491 72.1836 213.067C72.8129 213.643 73.1276 214.502 73.1276 215.643V220.763H71.6716V219.643C71.4156 220.038 71.0476 220.342 70.5676 220.555C70.0982 220.758 69.5382 220.859 68.8876 220.859C67.9382 220.859 67.1756 220.63 66.5996 220.171C66.0342 219.713 65.7516 219.11 65.7516 218.363C65.7516 217.617 66.0236 217.019 66.5676 216.571C67.1116 216.113 67.9756 215.883 69.1596 215.883H71.5916V215.579C71.5916 214.918 71.3996 214.411 71.0156 214.059C70.6316 213.707 70.0662 213.531 69.3196 213.531C68.8182 213.531 68.3276 213.617 67.8476 213.787C67.3676 213.947 66.9622 214.166 66.6316 214.443L65.9916 213.291C66.4289 212.939 66.9516 212.673 67.5596 212.491C68.1676 212.299 68.8129 212.203 69.4956 212.203ZM69.1436 219.675C69.7302 219.675 70.2369 219.547 70.6636 219.291C71.0902 219.025 71.3996 218.651 71.5916 218.171V216.987H69.2236C67.9222 216.987 67.2716 217.425 67.2716 218.299C67.2716 218.726 67.4369 219.062 67.7676 219.307C68.0982 219.553 68.5569 219.675 69.1436 219.675ZM81.0581 220.267C80.8341 220.459 80.5567 220.609 80.2261 220.715C79.8954 220.811 79.5541 220.859 79.2021 220.859C78.3487 220.859 77.6874 220.63 77.2181 220.171C76.7487 219.713 76.5141 219.057 76.5141 218.203V213.547H75.0741V212.283H76.5141V210.427H78.0501V212.283H80.4821V213.547H78.0501V218.139C78.0501 218.598 78.1621 218.95 78.3861 219.195C78.6207 219.441 78.9514 219.563 79.3781 219.563C79.8474 219.563 80.2474 219.43 80.5781 219.163L81.0581 220.267ZM87.7999 220.267C87.5759 220.459 87.2986 220.609 86.9679 220.715C86.6373 220.811 86.2959 220.859 85.9439 220.859C85.0906 220.859 84.4293 220.63 83.9599 220.171C83.4906 219.713 83.2559 219.057 83.2559 218.203V213.547H81.8159V212.283H83.2559V210.427H84.7919V212.283H87.2239V213.547H84.7919V218.139C84.7919 218.598 84.9039 218.95 85.1279 219.195C85.3626 219.441 85.6933 219.563 86.1199 219.563C86.5893 219.563 86.9893 219.43 87.3199 219.163L87.7999 220.267ZM93.0649 212.203C94.2383 212.203 95.1343 212.491 95.7529 213.067C96.3823 213.643 96.6969 214.502 96.6969 215.643V220.763H95.2409V219.643C94.9849 220.038 94.6169 220.342 94.1369 220.555C93.6676 220.758 93.1076 220.859 92.4569 220.859C91.5076 220.859 90.7449 220.63 90.1689 220.171C89.6036 219.713 89.3209 219.11 89.3209 218.363C89.3209 217.617 89.5929 217.019 90.1369 216.571C90.6809 216.113 91.5449 215.883 92.7289 215.883H95.1609V215.579C95.1609 214.918 94.9689 214.411 94.5849 214.059C94.2009 213.707 93.6356 213.531 92.8889 213.531C92.3876 213.531 91.8969 213.617 91.4169 213.787C90.9369 213.947 90.5316 214.166 90.2009 214.443L89.5609 213.291C89.9983 212.939 90.5209 212.673 91.1289 212.491C91.7369 212.299 92.3823 212.203 93.0649 212.203ZM92.7129 219.675C93.2996 219.675 93.8063 219.547 94.2329 219.291C94.6596 219.025 94.9689 218.651 95.1609 218.171V216.987H92.7929C91.4916 216.987 90.8409 217.425 90.8409 218.299C90.8409 218.726 91.0063 219.062 91.3369 219.307C91.6676 219.553 92.1263 219.675 92.7129 219.675ZM103.602 220.859C102.738 220.859 101.965 220.673 101.282 220.299C100.61 219.926 100.082 219.414 99.6983 218.763C99.3143 218.102 99.1223 217.355 99.1223 216.523C99.1223 215.691 99.3143 214.95 99.6983 214.299C100.082 213.638 100.61 213.126 101.282 212.763C101.965 212.39 102.738 212.203 103.602 212.203C104.37 212.203 105.053 212.358 105.65 212.667C106.258 212.977 106.728 213.425 107.058 214.011L105.89 214.763C105.624 214.358 105.293 214.054 104.898 213.851C104.504 213.649 104.066 213.547 103.586 213.547C103.032 213.547 102.53 213.67 102.082 213.915C101.645 214.161 101.298 214.513 101.042 214.971C100.797 215.419 100.674 215.937 100.674 216.523C100.674 217.121 100.797 217.649 101.042 218.107C101.298 218.555 101.645 218.902 102.082 219.147C102.53 219.393 103.032 219.515 103.586 219.515C104.066 219.515 104.504 219.414 104.898 219.211C105.293 219.009 105.624 218.705 105.89 218.299L107.058 219.035C106.728 219.622 106.258 220.075 105.65 220.395C105.053 220.705 104.37 220.859 103.602 220.859ZM113.786 212.203C114.863 212.203 115.716 212.518 116.346 213.147C116.986 213.766 117.306 214.678 117.306 215.883V220.763H115.77V216.059C115.77 215.238 115.572 214.619 115.178 214.203C114.783 213.787 114.218 213.579 113.482 213.579C112.65 213.579 111.994 213.825 111.514 214.315C111.034 214.795 110.794 215.489 110.794 216.395V220.763H109.258V208.891H110.794V213.483C111.114 213.078 111.53 212.763 112.042 212.539C112.564 212.315 113.146 212.203 113.786 212.203ZM128.189 210.059C127.272 210.059 126.813 210.555 126.813 211.547V212.283H129.277V213.547H126.845V220.763H125.309V213.547H123.869V212.283H125.309V211.531C125.309 210.689 125.554 210.022 126.045 209.531C126.536 209.041 127.224 208.795 128.109 208.795C128.45 208.795 128.77 208.838 129.069 208.923C129.368 209.009 129.624 209.131 129.837 209.291L129.373 210.459C129.021 210.193 128.626 210.059 128.189 210.059ZM132.013 212.283H133.549V220.763H132.013V212.283ZM132.781 210.651C132.482 210.651 132.232 210.555 132.029 210.363C131.837 210.171 131.741 209.937 131.741 209.659C131.741 209.382 131.837 209.147 132.029 208.955C132.232 208.753 132.482 208.651 132.781 208.651C133.08 208.651 133.325 208.747 133.517 208.939C133.72 209.121 133.821 209.35 133.821 209.627C133.821 209.915 133.72 210.161 133.517 210.363C133.325 210.555 133.08 210.651 132.781 210.651ZM136.796 208.891H138.332V220.763H136.796V208.891ZM149.248 216.571C149.248 216.689 149.238 216.843 149.216 217.035H142.336C142.432 217.782 142.758 218.385 143.312 218.843C143.878 219.291 144.576 219.515 145.408 219.515C146.422 219.515 147.238 219.174 147.856 218.491L148.704 219.483C148.32 219.931 147.84 220.273 147.264 220.507C146.699 220.742 146.064 220.859 145.36 220.859C144.464 220.859 143.67 220.678 142.976 220.315C142.283 219.942 141.744 219.425 141.36 218.763C140.987 218.102 140.8 217.355 140.8 216.523C140.8 215.702 140.982 214.961 141.344 214.299C141.718 213.638 142.224 213.126 142.864 212.763C143.515 212.39 144.246 212.203 145.056 212.203C145.867 212.203 146.587 212.39 147.216 212.763C147.856 213.126 148.352 213.638 148.704 214.299C149.067 214.961 149.248 215.718 149.248 216.571ZM145.056 213.499C144.32 213.499 143.702 213.723 143.2 214.171C142.71 214.619 142.422 215.206 142.336 215.931H147.776C147.691 215.217 147.398 214.635 146.896 214.187C146.406 213.729 145.792 213.499 145.056 213.499Z" fill="#B2A5F7"/>
<path d="M160.846 212.203C161.924 212.203 162.777 212.518 163.406 213.147C164.046 213.766 164.366 214.678 164.366 215.883V220.763H162.83V216.059C162.83 215.238 162.633 214.619 162.238 214.203C161.844 213.787 161.278 213.579 160.542 213.579C159.71 213.579 159.054 213.825 158.574 214.315C158.094 214.795 157.854 215.489 157.854 216.395V220.763H156.318V208.891H157.854V213.483C158.174 213.078 158.59 212.763 159.102 212.539C159.625 212.315 160.206 212.203 160.846 212.203ZM175.24 216.571C175.24 216.689 175.229 216.843 175.208 217.035H168.328C168.424 217.782 168.749 218.385 169.304 218.843C169.869 219.291 170.568 219.515 171.4 219.515C172.413 219.515 173.229 219.174 173.848 218.491L174.696 219.483C174.312 219.931 173.832 220.273 173.256 220.507C172.69 220.742 172.056 220.859 171.352 220.859C170.456 220.859 169.661 220.678 168.968 220.315C168.274 219.942 167.736 219.425 167.352 218.763C166.978 218.102 166.792 217.355 166.792 216.523C166.792 215.702 166.973 214.961 167.336 214.299C167.709 213.638 168.216 213.126 168.856 212.763C169.506 212.39 170.237 212.203 171.048 212.203C171.858 212.203 172.578 212.39 173.208 212.763C173.848 213.126 174.344 213.638 174.696 214.299C175.058 214.961 175.24 215.718 175.24 216.571ZM171.048 213.499C170.312 213.499 169.693 213.723 169.192 214.171C168.701 214.619 168.413 215.206 168.328 215.931H173.768C173.682 215.217 173.389 214.635 172.888 214.187C172.397 213.729 171.784 213.499 171.048 213.499ZM179.165 213.707C179.431 213.217 179.826 212.843 180.349 212.587C180.871 212.331 181.506 212.203 182.253 212.203V213.691C182.167 213.681 182.05 213.675 181.901 213.675C181.069 213.675 180.413 213.926 179.933 214.427C179.463 214.918 179.229 215.622 179.229 216.539V220.763H177.693V212.283H179.165V213.707ZM192.052 216.571C192.052 216.689 192.041 216.843 192.02 217.035H185.14C185.236 217.782 185.561 218.385 186.116 218.843C186.681 219.291 187.38 219.515 188.212 219.515C189.225 219.515 190.041 219.174 190.66 218.491L191.508 219.483C191.124 219.931 190.644 220.273 190.068 220.507C189.502 220.742 188.868 220.859 188.164 220.859C187.268 220.859 186.473 220.678 185.78 220.315C185.086 219.942 184.548 219.425 184.164 218.763C183.79 218.102 183.604 217.355 183.604 216.523C183.604 215.702 183.785 214.961 184.148 214.299C184.521 213.638 185.028 213.126 185.668 212.763C186.318 212.39 187.049 212.203 187.86 212.203C188.67 212.203 189.39 212.39 190.02 212.763C190.66 213.126 191.156 213.638 191.508 214.299C191.87 214.961 192.052 215.718 192.052 216.571ZM187.86 213.499C187.124 213.499 186.505 213.723 186.004 214.171C185.513 214.619 185.225 215.206 185.14 215.931H190.58C190.494 215.217 190.201 214.635 189.7 214.187C189.209 213.729 188.596 213.499 187.86 213.499Z" fill="#654CF0"/>
<path d="M154.862 222.363H193.044V223.163H154.862V222.363Z" fill="#654CF0"/>
<path d="M113.584 170.268C110.238 166.921 110.526 162.634 114.355 158.802L126.214 146.982C126.522 146.674 127.667 145.638 129.393 145.319C130.58 145.099 132.341 145.184 133.988 146.831C133.989 146.832 133.99 146.833 133.992 146.835C135.678 148.521 135.815 150.218 135.632 151.344C135.369 152.964 134.346 154.133 133.918 154.56L121.993 166.449C121.554 166.888 120.522 167.922 119.113 167.932C118.252 167.939 117.441 167.568 116.705 166.832C116.703 166.829 116.702 166.828 116.7 166.826C115.311 165.437 115.543 163.545 117.32 161.765L129.17 149.903L130.616 151.346L118.766 163.208C117.403 164.573 117.925 165.12 118.16 165.356C118.164 165.359 118.167 165.362 118.169 165.365C118.51 165.705 118.832 165.876 119.127 165.874C119.683 165.87 120.268 165.285 120.548 165.003L132.474 153.114C132.757 152.831 133.435 152.063 133.6 151.043C133.754 150.09 133.393 149.168 132.525 148.3C132.525 148.299 132.524 148.299 132.523 148.298C132.523 148.298 132.523 148.298 132.523 148.298C131.699 147.474 130.763 147.153 129.739 147.342C128.837 147.509 128.054 148.031 127.658 148.428L115.799 160.248C114.064 161.984 111.656 165.408 115.05 168.802C118.203 171.954 121.392 170.088 123.513 167.968L133.293 158.126L134.743 159.566L124.96 169.41C121.072 173.298 116.927 173.61 113.584 170.268Z" fill="#B2A5F7"/>
</svg>
