<svg width="164" height="33" viewBox="0 0 164 33" fill="none" xmlns="http://www.w3.org/2000/svg">
<path d="M86.2931 1.61743C88.4604 1.61743 89.9186 3.83748 89.0576 5.82647L79.5029 27.9C78.9071 29.2766 77.5504 30.1677 76.0504 30.1677H74.4712C72.9687 30.1677 71.6101 29.2741 71.0149 27.8945L61.649 6.18543C60.7171 4.02553 62.3009 1.61743 64.6532 1.61743C65.9646 1.61743 67.1494 2.40048 67.6633 3.607L75.5032 22.0104L83.5277 3.43518C84.0044 2.33186 85.0912 1.61743 86.2931 1.61743Z" fill="white"/>
<path d="M93.2633 4.9211C93.2633 3.09653 94.7424 1.61743 96.567 1.61743C98.3915 1.61743 99.8706 3.09654 99.8706 4.9211V26.864C99.8706 28.6886 98.3915 30.1677 96.567 30.1677C94.7424 30.1677 93.2633 28.6886 93.2633 26.864V4.9211Z" fill="white"/>
<path d="M105.382 18.6864C105.382 17.2785 106.523 16.1373 107.931 16.1373H114.375C115.783 16.1373 116.924 17.2785 116.924 18.6864C116.924 20.0942 115.783 21.2355 114.375 21.2355H107.931C106.523 21.2355 105.382 20.0942 105.382 18.6864Z" fill="white"/>
<path d="M122.379 4.9211C122.379 3.09653 123.858 1.61743 125.683 1.61743C127.507 1.61743 128.986 3.09654 128.986 4.9211V26.864C128.986 28.6886 127.507 30.1677 125.683 30.1677C123.858 30.1677 122.379 28.6886 122.379 26.864V4.9211Z" fill="white"/>
<path d="M134.813 6.3604C134.813 3.74093 136.937 1.61743 139.556 1.61743H147.783C150.883 1.61743 153.616 2.21563 155.981 3.41202C158.374 4.58122 160.223 6.23985 161.528 8.38791C162.861 10.536 163.527 13.0375 163.527 15.8925C163.527 18.7476 162.861 21.2491 161.528 23.3972C160.223 25.5452 158.374 27.2175 155.981 28.4139C153.616 29.5831 150.883 30.1677 147.783 30.1677H139.556C136.937 30.1677 134.813 28.0442 134.813 25.4247V6.3604ZM147.457 24.7431C150.312 24.7431 152.583 23.9546 154.268 22.3775C155.981 20.7733 156.838 18.6116 156.838 15.8925C156.838 13.1735 155.981 11.0254 154.268 9.44835C152.583 7.8441 150.312 7.04198 147.457 7.04198H141.421V24.7431H147.457Z" fill="white"/>
<path d="M42.7518 8.58203L43.342 7.83945L42.7518 8.58203ZM46.9877 11.949L46.3974 12.6916L46.3974 12.6916L46.9877 11.949ZM46.9877 19.3748L47.5779 20.1174L46.9877 19.3748ZM42.7582 22.7367L43.3484 23.4793L42.7582 22.7367ZM41.0342 25.6511L41.9692 25.8108L41.0342 25.6511ZM41.0302 5.68171L40.0956 5.84422L40.0956 5.84422L41.0302 5.68171ZM42.1615 9.32462L46.3974 12.6916L47.5779 11.2064L43.342 7.83945L42.1615 9.32462ZM46.3974 18.6322L42.1679 21.9941L43.3484 23.4793L47.5779 20.1174L46.3974 18.6322ZM40.0991 25.4913L39.9585 26.3147L41.8286 26.6341L41.9692 25.8108L40.0991 25.4913ZM41.9648 5.51919L41.8281 4.73331L39.959 5.05835L40.0956 5.84422L41.9648 5.51919ZM46.3974 12.6916C48.3085 14.2107 48.3086 17.1131 46.3974 18.6322L47.5779 20.1174C50.4446 17.8387 50.4446 13.485 47.5779 11.2064L46.3974 12.6916ZM43.342 7.83945C42.6142 7.2609 42.1241 6.43523 41.9648 5.51919L40.0956 5.84422C40.3346 7.21829 41.0697 8.45679 42.1615 9.32462L43.342 7.83945ZM42.1679 21.9941C41.0715 22.8656 40.3349 24.1108 40.0991 25.4913L41.9692 25.8108C42.1264 24.8904 42.6175 24.0603 43.3484 23.4793L42.1679 21.9941Z" fill="#03F5A9"/>
<path d="M46.1564 22.7881L45.5662 23.5307L46.1564 22.7881ZM41.8584 19.3717L41.2681 20.1143L41.8584 19.3717ZM41.8101 11.9848L41.2102 11.25L41.8101 11.9848ZM46.2246 8.38069L46.8245 9.11549L46.2246 8.38069ZM47.8874 5.57723L48.8199 5.75134L48.8199 5.75134L47.8874 5.57723ZM47.878 25.6884L48.8126 25.5259L47.878 25.6884ZM46.7467 22.0455L42.4486 18.6291L41.2681 20.1143L45.5662 23.5307L46.7467 22.0455ZM42.41 12.7196L46.8245 9.11549L45.6247 7.64588L41.2102 11.25L42.41 12.7196ZM48.8199 5.75134L48.9471 5.06986L47.0822 4.72164L46.9549 5.40311L48.8199 5.75134ZM46.9434 25.8509L47.0801 26.6368L48.9492 26.3118L48.8126 25.5259L46.9434 25.8509ZM42.4486 18.6291C40.5534 17.1227 40.5346 14.2507 42.41 12.7196L41.2102 11.25C38.3971 13.5466 38.4253 17.8546 41.2681 20.1143L42.4486 18.6291ZM45.5662 23.5307C46.294 24.1092 46.7841 24.9349 46.9434 25.8509L48.8126 25.5259C48.5736 24.1518 47.8385 22.9133 46.7467 22.0455L45.5662 23.5307ZM46.8245 9.11549C47.8662 8.26505 48.5731 7.07324 48.8199 5.75134L46.9549 5.40311C46.7904 6.28438 46.3191 7.07892 45.6247 7.64588L46.8245 9.11549Z" fill="white"/>
<path fill-rule="evenodd" clip-rule="evenodd" d="M50.7942 1.52416C49.3677 0.864279 47.6764 1.4857 47.0165 2.91214C46.3567 4.33858 46.9781 6.02988 48.4045 6.68976C49.5634 7.22586 50.6053 7.98496 51.4708 8.92373C52.3363 9.86249 53.0084 10.9625 53.4487 12.1611C53.8891 13.3596 54.0891 14.6331 54.0373 15.9089C53.9859 17.1727 53.6885 18.4143 53.1618 19.564C53.1567 19.5747 53.1516 19.5854 53.1467 19.5962C52.6106 20.7551 51.8515 21.797 50.9127 22.6625C49.9739 23.528 48.8739 24.2001 47.6754 24.6404C46.4769 25.0808 45.2033 25.2808 43.9275 25.229C42.6517 25.1772 41.3986 24.8746 40.2398 24.3385C38.8133 23.6786 37.122 24.3 36.4622 25.7264C35.8023 27.1529 36.4237 28.8442 37.8501 29.5041C39.6873 30.354 41.674 30.8337 43.6966 30.9158C45.7192 30.998 47.7382 30.6809 49.6383 29.9828C51.5384 29.2847 53.2823 28.2191 54.7706 26.847C56.2477 25.4852 57.4443 23.8478 58.2931 22.0271C58.2996 22.0136 58.306 22 58.3124 21.9863C59.1623 20.1491 59.642 18.1625 59.7241 16.1398C59.8063 14.1172 59.4892 12.0982 58.7911 10.1982C58.093 8.29807 57.0274 6.5541 55.6553 5.06581C54.2832 3.57753 52.6314 2.37407 50.7942 1.52416Z" fill="url(#paint0_linear)"/>
<mask id="path-5-inside-1" fill="white">
<path fill-rule="evenodd" clip-rule="evenodd" d="M35.2672 11.3644C34.7405 12.5142 34.443 13.7558 34.3917 15.0197C34.3399 16.2955 34.5399 17.569 34.9802 18.7675C35.4206 19.966 36.0927 21.066 36.9582 22.0048C37.8237 22.9436 38.8656 23.7027 40.0245 24.2388C41.4509 24.8987 42.0723 26.59 41.4124 28.0164C40.7526 29.4428 39.0613 30.0643 37.6348 29.4044C35.7976 28.5545 34.1458 27.351 32.7737 25.8627C31.4015 24.3744 30.336 22.6305 29.6379 20.7304C28.9397 18.8303 28.6227 16.8113 28.7048 14.7887C28.787 12.7661 29.2667 10.7795 30.1166 8.94225C30.1229 8.9286 30.1293 8.91503 30.1358 8.90154C30.9846 7.0808 32.1812 5.44339 33.6584 4.08152C35.1467 2.7094 36.8906 1.64386 38.7907 0.945731C40.6908 0.247599 42.7098 -0.0694462 44.7324 0.0126971C46.755 0.0948384 48.7416 0.574562 50.5789 1.42447C52.0053 2.08436 52.6267 3.77566 51.9668 5.2021C51.307 6.62854 49.6157 7.24996 48.1892 6.59007C47.0303 6.05398 45.7772 5.75138 44.5014 5.69957C43.2256 5.64776 41.9521 5.84774 40.7536 6.2881C39.5551 6.72846 38.4551 7.40057 37.5163 8.26606C36.5775 9.13155 35.8184 10.1735 35.2823 11.3323C35.2774 11.3431 35.2723 11.3538 35.2672 11.3644Z"/>
</mask>
<path d="M35.2672 11.3644L30.1312 8.91183L30.1117 8.95267L30.0929 8.99383L35.2672 11.3644ZM34.3917 15.0197L28.7048 14.7887L28.7048 14.7887L34.3917 15.0197ZM34.9802 18.7675L40.3226 16.8046L40.3226 16.8046L34.9802 18.7675ZM36.9582 22.0048L41.1427 18.1469L41.1427 18.1469L36.9582 22.0048ZM40.0245 24.2388L42.4141 19.0732L42.4141 19.0732L40.0245 24.2388ZM41.4124 28.0164L36.2468 25.6268L36.2468 25.6268L41.4124 28.0164ZM37.6348 29.4044L35.2452 34.57H35.2452L37.6348 29.4044ZM32.7737 25.8627L36.9582 22.0048H36.9582L32.7737 25.8627ZM29.6379 20.7304L34.9802 18.7675L34.9802 18.7675L29.6379 20.7304ZM28.7048 14.7887L34.3917 15.0197L34.3917 15.0197L28.7048 14.7887ZM30.1166 8.94225L24.951 6.55258L24.951 6.5526L30.1166 8.94225ZM30.1358 8.90154L35.2637 11.371L35.2793 11.3388L35.2944 11.3064L30.1358 8.90154ZM33.6584 4.08152L29.8005 -0.103014L29.8005 -0.103013L33.6584 4.08152ZM38.7907 0.945731L40.7536 6.2881L40.7536 6.2881L38.7907 0.945731ZM44.7324 0.0126971L44.5014 5.69957L44.5014 5.69957L44.7324 0.0126971ZM50.5789 1.42447L52.9685 -3.74113L52.9685 -3.74113L50.5789 1.42447ZM51.9668 5.2021L57.1324 7.59175V7.59175L51.9668 5.2021ZM48.1892 6.59007L45.7996 11.7557H45.7996L48.1892 6.59007ZM44.5014 5.69957L44.7324 0.0126964L44.7324 0.0126963L44.5014 5.69957ZM40.7536 6.2881L42.7165 11.6305L40.7536 6.2881ZM37.5163 8.26606L41.3742 12.4506L41.3742 12.4506L37.5163 8.26606ZM35.2823 11.3323L40.4479 13.7221L40.4479 13.722L35.2823 11.3323ZM30.0929 8.99383C29.2578 10.8166 28.7862 12.785 28.7048 14.7887L40.0786 15.2506C40.0999 14.7266 40.2232 14.2118 40.4416 13.735L30.0929 8.99383ZM28.7048 14.7887C28.6227 16.8113 28.9397 18.8303 29.6379 20.7304L40.3226 16.8046C40.14 16.3076 40.0571 15.7796 40.0786 15.2506L28.7048 14.7887ZM29.6379 20.7304C30.336 22.6305 31.4015 24.3744 32.7737 25.8627L41.1427 18.1469C40.7839 17.7577 40.5052 17.3015 40.3226 16.8046L29.6379 20.7304ZM32.7737 25.8627C34.1458 27.351 35.7976 28.5545 37.6348 29.4044L42.4141 19.0732C41.9336 18.8509 41.5016 18.5361 41.1427 18.1469L32.7737 25.8627ZM37.6348 29.4044C36.2084 28.7445 35.587 27.0532 36.2468 25.6268L46.578 30.4061C48.5577 26.1267 46.6934 21.0528 42.4141 19.0732L37.6348 29.4044ZM36.2468 25.6268C36.9067 24.2003 38.598 23.5789 40.0245 24.2388L35.2452 34.57C39.5245 36.5496 44.5984 34.6854 46.578 30.4061L36.2468 25.6268ZM40.0245 24.2388C38.8656 23.7027 37.8237 22.9436 36.9582 22.0048L28.5891 29.7206C30.4679 31.7585 32.7296 33.4063 35.2452 34.57L40.0245 24.2388ZM36.9582 22.0048C36.0927 21.066 35.4206 19.966 34.9802 18.7675L24.2955 22.6933C25.2514 25.2949 26.7104 27.6828 28.5891 29.7206L36.9582 22.0048ZM34.9802 18.7675C34.5399 17.569 34.3399 16.2955 34.3917 15.0197L23.018 14.5577C22.9055 17.3272 23.3396 20.0916 24.2955 22.6933L34.9802 18.7675ZM34.3917 15.0197C34.4435 13.7439 34.7461 12.4908 35.2822 11.3319L24.951 6.5526C23.7873 9.06816 23.1304 11.7883 23.018 14.5577L34.3917 15.0197ZM35.2822 11.3319C35.2762 11.3449 35.27 11.358 35.2637 11.371L25.0079 6.43203C24.9886 6.47208 24.9697 6.51227 24.951 6.55258L35.2822 11.3319ZM35.2944 11.3064C35.8298 10.1579 36.5845 9.12508 37.5163 8.26606L29.8005 -0.103013C27.7779 1.7617 26.1395 4.00369 24.9773 6.4967L35.2944 11.3064ZM37.5163 8.26606C38.4551 7.40057 39.5551 6.72846 40.7536 6.2881L36.8278 -4.39664C34.2262 -3.44074 31.8383 -1.98176 29.8005 -0.103014L37.5163 8.26606ZM40.7536 6.2881C41.9521 5.84774 43.2256 5.64776 44.5014 5.69957L44.9634 -5.67418C42.1939 -5.78665 39.4295 -5.35254 36.8278 -4.39664L40.7536 6.2881ZM44.5014 5.69957C45.7772 5.75138 47.0303 6.05398 48.1892 6.59007L52.9685 -3.74113C50.4529 -4.90485 47.7328 -5.56171 44.9634 -5.67418L44.5014 5.69957ZM48.1892 6.59007C46.7628 5.93019 46.1413 4.23889 46.8012 2.81245L57.1324 7.59175C59.1121 3.31242 57.2478 -1.76148 52.9685 -3.74113L48.1892 6.59007ZM46.8012 2.81245C47.4611 1.38601 49.1524 0.764589 50.5789 1.42447L45.7996 11.7557C50.0789 13.7353 55.1528 11.8711 57.1324 7.59175L46.8012 2.81245ZM50.5789 1.42447C48.7416 0.574562 46.755 0.0948392 44.7324 0.0126964L44.2705 11.3864C44.7995 11.4079 45.3191 11.5334 45.7996 11.7557L50.5789 1.42447ZM44.7324 0.0126963C42.7098 -0.0694458 40.6908 0.247599 38.7907 0.945731L42.7165 11.6305C43.2135 11.4479 43.7415 11.365 44.2705 11.3864L44.7324 0.0126963ZM38.7907 0.94573C36.8906 1.64386 35.1467 2.7094 33.6584 4.08152L41.3742 12.4506C41.7634 12.0917 42.2196 11.8131 42.7165 11.6305L38.7907 0.94573ZM33.6584 4.08152C32.1701 5.45364 30.9666 7.10547 30.1167 8.94268L40.4479 13.722C40.6702 13.2415 40.985 12.8095 41.3742 12.4506L33.6584 4.08152ZM30.1168 8.94257C30.1214 8.93249 30.1263 8.92224 30.1312 8.91183L40.4032 13.817C40.4184 13.7853 40.4333 13.7537 40.4479 13.7221L30.1168 8.94257Z" fill="url(#paint1_linear)" mask="url(#path-5-inside-1)"/>
<path d="M22.6833 8.03178C20.6033 5.85913 17.672 4.50586 14.4242 4.50586C8.1148 4.50586 3 9.61312 3 15.9132C3 22.2134 8.1148 27.3206 14.4242 27.3206C17.672 27.3206 20.6033 25.9673 22.6833 23.7947" stroke="white" stroke-width="5.59185" stroke-linecap="round"/>
<path d="M39.053 26.9261C40.5426 27.637 42.1664 28.0294 43.8315 28.0808" stroke="url(#paint2_linear)" stroke-width="5.69156" stroke-linecap="round"/>
<defs>
<linearGradient id="paint0_linear" x1="59.6785" y1="13.0428" x2="50.5394" y2="24.7095" gradientUnits="userSpaceOnUse">
<stop stop-color="#654CF0"/>
<stop offset="1" stop-color="#03F5A9"/>
</linearGradient>
<linearGradient id="paint1_linear" x1="31.6458" y1="25.2904" x2="43.5205" y2="5.78041" gradientUnits="userSpaceOnUse">
<stop stop-color="#654CF0"/>
<stop offset="1" stop-color="white"/>
</linearGradient>
<linearGradient id="paint2_linear" x1="58.1493" y1="18.8577" x2="43.9651" y2="27.0784" gradientUnits="userSpaceOnUse">
<stop stop-color="#654CF0" stop-opacity="0"/>
<stop offset="0.0001" stop-color="#0BE8AF" stop-opacity="0.921875"/>
<stop offset="1" stop-color="#03F5A9"/>
</linearGradient>
</defs>
</svg>
