<svg width="375" height="1207" viewBox="0 0 375 1207" fill="none" xmlns="http://www.w3.org/2000/svg">
<path d="M0 0H375V1207H0V0Z" fill="#F1F0F8"/>
<path d="M-252.643 24.3215C-349.498 -101.727 -175.859 -188.636 -102.874 -229.427C-29.8888 -270.217 42.1903 -294.531 184.63 -242.843C430.107 -153.767 416.614 -151.618 628.324 -180.144C840.034 -208.67 865.887 -34.0489 859.669 26.9565C850.885 113.136 685.116 165.547 759.292 295.17C833.467 424.794 774.545 333.342 600.329 441.348C426.112 549.354 322.519 479.187 237.182 462.997C74.424 432.783 7.6009 497.856 -101.79 397.12C-200.776 305.966 -69.964 153.922 -252.643 24.3215Z" fill="#E0DBFC"/>
</svg>
