<svg width="414" height="729" viewBox="0 0 414 729" fill="none" xmlns="http://www.w3.org/2000/svg">
<g clip-path="url(#clip0)">
<rect width="414" height="729" fill="#513CC5"/>
<path d="M0 0H414V729H0V0Z" fill="#654CF0"/>
<path d="M-615.261 1216.99C-816.103 1341.74 -924.432 1058.89 -976.342 939.201C-1028.25 819.508 -1055.61 704.323 -960.373 495.568C-796.241 135.805 -794.716 156.913 -810.87 -173.294C-827.024 -503.501 -562.373 -510.128 -471.828 -489.046C-343.917 -459.264 -286.247 -195.023 -82.8977 -284.301C120.451 -373.578 189.556 -197.052 219.295 0.406721C249.035 197.866 144.496 295.209 109.558 423.071C43.7028 664.077 132.393 900.643 -39.3462 1055.94C-188.218 1190.56 -398.34 961.237 -615.261 1216.99Z" fill="#513CC5"/>
<path fill-rule="evenodd" clip-rule="evenodd" d="M347.485 620.303C347.485 622.68 345.558 624.606 343.182 624.606C340.805 624.606 338.879 622.68 338.879 620.303C338.879 617.927 340.805 616 343.182 616C345.558 616 347.485 617.927 347.485 620.303ZM302.303 624.606C304.68 624.606 306.606 622.68 306.606 620.303C306.606 617.927 304.68 616 302.303 616C299.927 616 298 617.927 298 620.303C298 622.68 299.927 624.606 302.303 624.606ZM302.303 665.485C304.68 665.485 306.606 663.558 306.606 661.182C306.606 658.805 304.68 656.879 302.303 656.879C299.927 656.879 298 658.805 298 661.182C298 663.558 299.927 665.485 302.303 665.485ZM306.606 702.061C306.606 704.437 304.68 706.364 302.303 706.364C299.927 706.364 298 704.437 298 702.061C298 699.684 299.927 697.758 302.303 697.758C304.68 697.758 306.606 699.684 306.606 702.061ZM302.303 747.242C304.68 747.242 306.606 745.316 306.606 742.939C306.606 740.563 304.68 738.636 302.303 738.636C299.927 738.636 298 740.563 298 742.939C298 745.316 299.927 747.242 302.303 747.242ZM306.606 783.818C306.606 786.195 304.68 788.121 302.303 788.121C299.927 788.121 298 786.195 298 783.818C298 781.442 299.927 779.515 302.303 779.515C304.68 779.515 306.606 781.442 306.606 783.818ZM302.303 829C304.68 829 306.606 827.073 306.606 824.697C306.606 822.32 304.68 820.394 302.303 820.394C299.927 820.394 298 822.32 298 824.697C298 827.073 299.927 829 302.303 829ZM343.182 665.485C345.558 665.485 347.485 663.558 347.485 661.182C347.485 658.805 345.558 656.879 343.182 656.879C340.805 656.879 338.879 658.805 338.879 661.182C338.879 663.558 340.805 665.485 343.182 665.485ZM347.485 702.061C347.485 704.437 345.558 706.364 343.182 706.364C340.805 706.364 338.879 704.437 338.879 702.061C338.879 699.684 340.805 697.758 343.182 697.758C345.558 697.758 347.485 699.684 347.485 702.061ZM384.061 706.364C386.437 706.364 388.364 704.437 388.364 702.061C388.364 699.684 386.437 697.758 384.061 697.758C381.684 697.758 379.758 699.684 379.758 702.061C379.758 704.437 381.684 706.364 384.061 706.364ZM429.242 702.061C429.242 704.437 427.316 706.364 424.939 706.364C422.563 706.364 420.636 704.437 420.636 702.061C420.636 699.684 422.563 697.758 424.939 697.758C427.316 697.758 429.242 699.684 429.242 702.061ZM465.818 706.364C468.195 706.364 470.121 704.437 470.121 702.061C470.121 699.684 468.195 697.758 465.818 697.758C463.442 697.758 461.515 699.684 461.515 702.061C461.515 704.437 463.442 706.364 465.818 706.364ZM511 702.061C511 704.437 509.073 706.364 506.697 706.364C504.32 706.364 502.394 704.437 502.394 702.061C502.394 699.684 504.32 697.758 506.697 697.758C509.073 697.758 511 699.684 511 702.061ZM343.182 747.242C345.558 747.242 347.485 745.316 347.485 742.939C347.485 740.563 345.558 738.636 343.182 738.636C340.805 738.636 338.879 740.563 338.879 742.939C338.879 745.316 340.805 747.242 343.182 747.242ZM347.485 783.818C347.485 786.195 345.558 788.121 343.182 788.121C340.805 788.121 338.879 786.195 338.879 783.818C338.879 781.442 340.805 779.515 343.182 779.515C345.558 779.515 347.485 781.442 347.485 783.818ZM343.182 829C345.558 829 347.485 827.073 347.485 824.697C347.485 822.32 345.558 820.394 343.182 820.394C340.805 820.394 338.879 822.32 338.879 824.697C338.879 827.073 340.805 829 343.182 829ZM388.364 620.303C388.364 622.68 386.437 624.606 384.061 624.606C381.684 624.606 379.758 622.68 379.758 620.303C379.758 617.927 381.684 616 384.061 616C386.437 616 388.364 617.927 388.364 620.303ZM384.061 665.485C386.437 665.485 388.364 663.558 388.364 661.182C388.364 658.805 386.437 656.879 384.061 656.879C381.684 656.879 379.758 658.805 379.758 661.182C379.758 663.558 381.684 665.485 384.061 665.485ZM388.364 742.939C388.364 745.316 386.437 747.242 384.061 747.242C381.684 747.242 379.758 745.316 379.758 742.939C379.758 740.563 381.684 738.636 384.061 738.636C386.437 738.636 388.364 740.563 388.364 742.939ZM384.061 788.121C386.437 788.121 388.364 786.195 388.364 783.818C388.364 781.442 386.437 779.515 384.061 779.515C381.684 779.515 379.758 781.442 379.758 783.818C379.758 786.195 381.684 788.121 384.061 788.121ZM388.364 824.697C388.364 827.073 386.437 829 384.061 829C381.684 829 379.758 827.073 379.758 824.697C379.758 822.32 381.684 820.394 384.061 820.394C386.437 820.394 388.364 822.32 388.364 824.697ZM424.939 624.606C427.316 624.606 429.242 622.68 429.242 620.303C429.242 617.927 427.316 616 424.939 616C422.563 616 420.636 617.927 420.636 620.303C420.636 622.68 422.563 624.606 424.939 624.606ZM429.242 661.182C429.242 663.558 427.316 665.485 424.939 665.485C422.563 665.485 420.636 663.558 420.636 661.182C420.636 658.805 422.563 656.879 424.939 656.879C427.316 656.879 429.242 658.805 429.242 661.182ZM424.939 747.242C427.316 747.242 429.242 745.316 429.242 742.939C429.242 740.563 427.316 738.636 424.939 738.636C422.563 738.636 420.636 740.563 420.636 742.939C420.636 745.316 422.563 747.242 424.939 747.242ZM429.242 783.818C429.242 786.195 427.316 788.121 424.939 788.121C422.563 788.121 420.636 786.195 420.636 783.818C420.636 781.442 422.563 779.515 424.939 779.515C427.316 779.515 429.242 781.442 429.242 783.818ZM424.939 829C427.316 829 429.242 827.073 429.242 824.697C429.242 822.32 427.316 820.394 424.939 820.394C422.563 820.394 420.636 822.32 420.636 824.697C420.636 827.073 422.563 829 424.939 829ZM470.121 620.303C470.121 622.68 468.195 624.606 465.818 624.606C463.442 624.606 461.515 622.68 461.515 620.303C461.515 617.927 463.442 616 465.818 616C468.195 616 470.121 617.927 470.121 620.303ZM465.818 665.485C468.195 665.485 470.121 663.558 470.121 661.182C470.121 658.805 468.195 656.879 465.818 656.879C463.442 656.879 461.515 658.805 461.515 661.182C461.515 663.558 463.442 665.485 465.818 665.485ZM470.121 742.939C470.121 745.316 468.195 747.242 465.818 747.242C463.442 747.242 461.515 745.316 461.515 742.939C461.515 740.563 463.442 738.636 465.818 738.636C468.195 738.636 470.121 740.563 470.121 742.939ZM465.818 788.121C468.195 788.121 470.121 786.195 470.121 783.818C470.121 781.442 468.195 779.515 465.818 779.515C463.442 779.515 461.515 781.442 461.515 783.818C461.515 786.195 463.442 788.121 465.818 788.121ZM470.121 824.697C470.121 827.073 468.195 829 465.818 829C463.442 829 461.515 827.073 461.515 824.697C461.515 822.32 463.442 820.394 465.818 820.394C468.195 820.394 470.121 822.32 470.121 824.697ZM506.697 624.606C509.073 624.606 511 622.68 511 620.303C511 617.927 509.073 616 506.697 616C504.32 616 502.394 617.927 502.394 620.303C502.394 622.68 504.32 624.606 506.697 624.606ZM511 661.182C511 663.558 509.073 665.485 506.697 665.485C504.32 665.485 502.394 663.558 502.394 661.182C502.394 658.805 504.32 656.879 506.697 656.879C509.073 656.879 511 658.805 511 661.182ZM506.697 747.242C509.073 747.242 511 745.316 511 742.939C511 740.563 509.073 738.636 506.697 738.636C504.32 738.636 502.394 740.563 502.394 742.939C502.394 745.316 504.32 747.242 506.697 747.242ZM511 783.818C511 786.195 509.073 788.121 506.697 788.121C504.32 788.121 502.394 786.195 502.394 783.818C502.394 781.442 504.32 779.515 506.697 779.515C509.073 779.515 511 781.442 511 783.818ZM506.697 829C509.073 829 511 827.073 511 824.697C511 822.32 509.073 820.394 506.697 820.394C504.32 820.394 502.394 822.32 502.394 824.697C502.394 827.073 504.32 829 506.697 829Z" fill="url(#paint0_linear)"/>
<circle opacity="0.3" cx="351" cy="41" r="19" fill="#654CF0"/>
<circle cx="351" cy="41" r="6.30537" fill="#654CF0"/>
</g>
<defs>
<linearGradient id="paint0_linear" x1="404.5" y1="616" x2="404.5" y2="829" gradientUnits="userSpaceOnUse">
<stop stop-color="#E0DDF7"/>
<stop offset="1" stop-color="#E0DDF7" stop-opacity="0"/>
</linearGradient>
<clipPath id="clip0">
<rect width="414" height="729" fill="white"/>
</clipPath>
</defs>
</svg>
