<svg width="311" height="857" viewBox="0 0 311 857" fill="none" xmlns="http://www.w3.org/2000/svg">
<mask id="mask0" mask-type="alpha" maskUnits="userSpaceOnUse" x="0" y="0" width="311" height="857">
<path d="M271 -1.74846e-06C293.091 -7.8281e-07 311 17.9086 311 40L311 817C311 839.091 293.091 857 271 857L40 857C17.9086 857 -6.16027e-06 839.091 -5.19463e-06 817L2.87691e-05 40C2.97348e-05 17.9086 17.9087 -1.28114e-05 40 -1.18458e-05L271 -1.74846e-06Z" fill="#654CF0"/>
</mask>
<g mask="url(#mask0)">
<path d="M271 -22.0006C293.091 -22.0006 311 -4.092 311 17.9994L311 816.999C311 839.091 293.091 856.999 271 856.999L35.9997 856.999C13.9083 856.999 -4.00025 839.091 -4.00025 816.999L-4.00022 17.9994C-4.00021 -4.09203 13.9084 -22.0006 35.9998 -22.0006L271 -22.0006Z" fill="white"/>
<path d="M-158.932 -55.8246C-229.492 -152.973 -102.391 -220.283 -48.9598 -251.864C4.47199 -283.444 57.2097 -302.307 161.236 -262.61C340.511 -194.198 330.643 -192.521 485.461 -214.825C640.279 -237.129 658.841 -102.397 654.178 -55.3065C647.591 11.2164 526.31 51.891 580.284 151.829C634.257 251.768 591.245 181.016 463.683 264.609C336.12 348.202 260.527 294.191 198.176 281.812C80.6513 258.479 30.3965 309.28 -49.3755 231.684C-121.56 161.469 -25.6413 43.9479 -158.932 -55.8246Z" fill="#513CC5"/>
</g>
</svg>
