<svg width="414" height="736" viewBox="0 0 414 736" fill="none" xmlns="http://www.w3.org/2000/svg">
<g clip-path="url(#clip0)">
<rect width="414" height="736" fill="white"/>
<path d="M-332.843 777.844C-472.854 863.045 -565.651 705.529 -609.337 639.256C-653.023 572.983 -678.618 507.776 -619.607 380.438C-517.909 160.986 -515.758 173.157 -543.81 -17.7143C-571.861 -208.585 -379.583 -229.177 -312.645 -222.654C-218.086 -213.438 -163.075 -63.5282 -19.4882 -128.273C124.098 -193.019 201.001 -99.7577 221.641 16.5045C242.282 132.767 174.601 194.112 155.484 270.627C119.449 414.848 195.67 546.713 78.3462 647.825C-23.3556 735.474 -187.594 615.498 -332.843 777.844Z" fill="#F8F8FB"/>
<path fill-rule="evenodd" clip-rule="evenodd" d="M374.545 547.727C372.638 547.727 371.091 546.181 371.091 544.273C371.091 542.365 372.638 540.818 374.545 540.818C376.453 540.818 378 542.365 378 544.273C378 546.181 376.453 547.727 374.545 547.727ZM371.091 511.455C371.091 513.363 372.637 514.909 374.545 514.909C376.453 514.909 378 513.363 378 511.455C378 509.547 376.453 508 374.545 508C372.637 508 371.091 509.547 371.091 511.455ZM338.273 511.455C338.273 513.362 339.819 514.909 341.727 514.909C343.635 514.909 345.182 513.362 345.182 511.455C345.182 509.547 343.635 508 341.727 508C339.819 508 338.273 509.547 338.273 511.455ZM308.909 514.909C307.001 514.909 305.455 513.362 305.455 511.455C305.455 509.547 307.001 508 308.909 508C310.817 508 312.364 509.547 312.364 511.455C312.364 513.362 310.817 514.909 308.909 514.909ZM272.636 511.455C272.636 513.362 274.183 514.909 276.091 514.909C277.999 514.909 279.545 513.362 279.545 511.455C279.545 509.547 277.999 508 276.091 508C274.183 508 272.636 509.547 272.636 511.455ZM243.273 514.909C241.365 514.909 239.818 513.362 239.818 511.455C239.818 509.547 241.365 508 243.273 508C245.181 508 246.727 509.547 246.727 511.455C246.727 513.362 245.181 514.909 243.273 514.909ZM207 511.455C207 513.362 208.547 514.909 210.455 514.909C212.362 514.909 213.909 513.362 213.909 511.455C213.909 509.547 212.362 508 210.455 508C208.547 508 207 509.547 207 511.455ZM338.273 544.273C338.273 546.181 339.819 547.727 341.727 547.727C343.635 547.727 345.182 546.181 345.182 544.273C345.182 542.365 343.635 540.818 341.727 540.818C339.819 540.818 338.273 542.365 338.273 544.273ZM308.909 547.727C307.001 547.727 305.455 546.181 305.455 544.273C305.455 542.365 307.001 540.818 308.909 540.818C310.817 540.818 312.364 542.365 312.364 544.273C312.364 546.181 310.817 547.727 308.909 547.727ZM305.455 577.091C305.455 578.999 307.001 580.545 308.909 580.545C310.817 580.545 312.364 578.999 312.364 577.091C312.364 575.183 310.817 573.636 308.909 573.636C307.001 573.636 305.455 575.183 305.455 577.091ZM308.909 613.364C307.001 613.364 305.455 611.817 305.455 609.909C305.455 608.001 307.001 606.455 308.909 606.455C310.817 606.455 312.364 608.001 312.364 609.909C312.364 611.817 310.817 613.364 308.909 613.364ZM305.455 642.727C305.455 644.635 307.001 646.182 308.909 646.182C310.817 646.182 312.364 644.635 312.364 642.727C312.364 640.819 310.817 639.273 308.909 639.273C307.001 639.273 305.455 640.819 305.455 642.727ZM308.909 679C307.001 679 305.455 677.453 305.455 675.545C305.455 673.638 307.001 672.091 308.909 672.091C310.817 672.091 312.364 673.638 312.364 675.545C312.364 677.453 310.817 679 308.909 679ZM272.636 544.273C272.636 546.181 274.183 547.727 276.091 547.727C277.999 547.727 279.545 546.181 279.545 544.273C279.545 542.365 277.999 540.818 276.091 540.818C274.183 540.818 272.636 542.365 272.636 544.273ZM243.273 547.727C241.365 547.727 239.818 546.181 239.818 544.273C239.818 542.365 241.365 540.818 243.273 540.818C245.181 540.818 246.727 542.365 246.727 544.273C246.727 546.181 245.181 547.727 243.273 547.727ZM207 544.273C207 546.181 208.547 547.727 210.455 547.727C212.362 547.727 213.909 546.181 213.909 544.273C213.909 542.365 212.362 540.818 210.455 540.818C208.547 540.818 207 542.365 207 544.273ZM374.545 580.545C372.638 580.545 371.091 578.999 371.091 577.091C371.091 575.183 372.638 573.636 374.545 573.636C376.453 573.636 378 575.183 378 577.091C378 578.999 376.453 580.545 374.545 580.545ZM338.273 577.091C338.273 578.999 339.819 580.545 341.727 580.545C343.635 580.545 345.182 578.999 345.182 577.091C345.182 575.183 343.635 573.636 341.727 573.636C339.819 573.636 338.273 575.183 338.273 577.091ZM276.091 580.545C274.183 580.545 272.636 578.999 272.636 577.091C272.636 575.183 274.183 573.636 276.091 573.636C277.999 573.636 279.545 575.183 279.545 577.091C279.545 578.999 277.999 580.545 276.091 580.545ZM239.818 577.091C239.818 578.999 241.365 580.545 243.273 580.545C245.181 580.545 246.727 578.999 246.727 577.091C246.727 575.183 245.181 573.636 243.273 573.636C241.365 573.636 239.818 575.183 239.818 577.091ZM210.455 580.545C208.547 580.545 207 578.999 207 577.091C207 575.183 208.547 573.636 210.455 573.636C212.362 573.636 213.909 575.183 213.909 577.091C213.909 578.999 212.362 580.545 210.455 580.545ZM371.091 609.909C371.091 611.817 372.638 613.364 374.545 613.364C376.453 613.364 378 611.817 378 609.909C378 608.001 376.453 606.455 374.545 606.455C372.638 606.455 371.091 608.001 371.091 609.909ZM341.727 613.364C339.819 613.364 338.273 611.817 338.273 609.909C338.273 608.001 339.819 606.455 341.727 606.455C343.635 606.455 345.182 608.001 345.182 609.909C345.182 611.817 343.635 613.364 341.727 613.364ZM272.636 609.909C272.636 611.817 274.183 613.364 276.091 613.364C277.999 613.364 279.545 611.817 279.545 609.909C279.545 608.001 277.999 606.455 276.091 606.455C274.183 606.455 272.636 608.001 272.636 609.909ZM243.273 613.364C241.365 613.364 239.818 611.817 239.818 609.909C239.818 608.001 241.365 606.455 243.273 606.455C245.181 606.455 246.727 608.001 246.727 609.909C246.727 611.817 245.181 613.364 243.273 613.364ZM207 609.909C207 611.817 208.547 613.364 210.455 613.364C212.362 613.364 213.909 611.817 213.909 609.909C213.909 608.001 212.362 606.455 210.455 606.455C208.547 606.455 207 608.001 207 609.909ZM374.545 646.182C372.638 646.182 371.091 644.635 371.091 642.727C371.091 640.819 372.638 639.273 374.545 639.273C376.453 639.273 378 640.819 378 642.727C378 644.635 376.453 646.182 374.545 646.182ZM338.273 642.727C338.273 644.635 339.819 646.182 341.727 646.182C343.635 646.182 345.182 644.635 345.182 642.727C345.182 640.819 343.635 639.273 341.727 639.273C339.819 639.273 338.273 640.819 338.273 642.727ZM276.091 646.182C274.183 646.182 272.636 644.635 272.636 642.727C272.636 640.819 274.183 639.273 276.091 639.273C277.999 639.273 279.545 640.819 279.545 642.727C279.545 644.635 277.999 646.182 276.091 646.182ZM239.818 642.727C239.818 644.635 241.365 646.182 243.273 646.182C245.181 646.182 246.727 644.635 246.727 642.727C246.727 640.819 245.181 639.273 243.273 639.273C241.365 639.273 239.818 640.819 239.818 642.727ZM210.455 646.182C208.547 646.182 207 644.635 207 642.727C207 640.819 208.547 639.273 210.455 639.273C212.362 639.273 213.909 640.819 213.909 642.727C213.909 644.635 212.362 646.182 210.455 646.182ZM371.091 675.545C371.091 677.453 372.638 679 374.545 679C376.453 679 378 677.453 378 675.545C378 673.638 376.453 672.091 374.545 672.091C372.638 672.091 371.091 673.638 371.091 675.545ZM341.727 679C339.819 679 338.273 677.453 338.273 675.545C338.273 673.638 339.819 672.091 341.727 672.091C343.635 672.091 345.182 673.638 345.182 675.545C345.182 677.453 343.635 679 341.727 679ZM272.636 675.545C272.636 677.453 274.183 679 276.091 679C277.999 679 279.545 677.453 279.545 675.545C279.545 673.638 277.999 672.091 276.091 672.091C274.183 672.091 272.636 673.638 272.636 675.545ZM243.273 679C241.365 679 239.818 677.453 239.818 675.545C239.818 673.638 241.365 672.091 243.273 672.091C245.181 672.091 246.727 673.638 246.727 675.545C246.727 677.453 245.181 679 243.273 679ZM207 675.545C207 677.453 208.547 679 210.455 679C212.362 679 213.909 677.453 213.909 675.545C213.909 673.638 212.362 672.091 210.455 672.091C208.547 672.091 207 673.638 207 675.545Z" fill="url(#paint0_linear)"/>
<circle cx="37" cy="630" r="60" fill="#FBD928" fill-opacity="0.4"/>
<circle cx="36.9999" cy="630" r="16.2914" fill="#FBD928"/>
<circle opacity="0.3" cx="366" cy="97" r="27" fill="#654CF0"/>
<circle cx="366" cy="96.9999" r="8.96027" fill="#654CF0"/>
</g>
<defs>
<linearGradient id="paint0_linear" x1="378" y1="593.5" x2="207" y2="593.5" gradientUnits="userSpaceOnUse">
<stop stop-color="#E0DDF7"/>
<stop offset="1" stop-color="#E0DDF7" stop-opacity="0"/>
</linearGradient>
<clipPath id="clip0">
<rect width="414" height="736" fill="white"/>
</clipPath>
</defs>
</svg>
