<svg width="375" height="930" viewBox="0 0 375 930" fill="none" xmlns="http://www.w3.org/2000/svg">
<g clip-path="url(#clip0)">
<rect width="375" height="930" fill="#513CC5"/>
<rect width="375" height="930" fill="#513CC5"/>
<path d="M-583.529 -432.16C-702.678 -592.422 -522.034 -722.759 -446.555 -783.23C-371.074 -843.701 -294.849 -882.103 -133.707 -824.862C143.999 -726.215 129.476 -722.233 357.884 -777.78C586.291 -833.326 632.947 -602.37 632.577 -520.425C632.054 -404.664 456.38 -321.026 551.114 -154.121C645.849 12.7841 541.37 116.596 402.645 154.742C263.919 192.887 181.865 117.69 86.8804 103.12C-92.1538 75.6575 -243.544 182.993 -379.44 52.0497C-497.242 -61.4583 -370.196 -274.239 -583.529 -432.16Z" fill="#654CF0"/>
<path fill-rule="evenodd" clip-rule="evenodd" d="M421.697 799.485C419.32 799.485 417.394 797.558 417.394 795.182C417.394 792.805 419.32 790.879 421.697 790.879C424.073 790.879 426 792.805 426 795.182C426 797.558 424.073 799.485 421.697 799.485ZM417.394 754.303C417.394 756.68 419.32 758.606 421.697 758.606C424.073 758.606 426 756.68 426 754.303C426 751.927 424.073 750 421.697 750C419.32 750 417.394 751.927 417.394 754.303ZM376.515 754.303C376.515 756.68 378.442 758.606 380.818 758.606C383.195 758.606 385.121 756.68 385.121 754.303C385.121 751.927 383.195 750 380.818 750C378.442 750 376.515 751.927 376.515 754.303ZM339.939 758.606C337.563 758.606 335.636 756.68 335.636 754.303C335.636 751.927 337.563 750 339.939 750C342.316 750 344.242 751.927 344.242 754.303C344.242 756.68 342.316 758.606 339.939 758.606ZM294.758 754.303C294.758 756.68 296.684 758.606 299.061 758.606C301.437 758.606 303.364 756.68 303.364 754.303C303.364 751.927 301.437 750 299.061 750C296.684 750 294.758 751.927 294.758 754.303ZM258.182 758.606C255.805 758.606 253.879 756.68 253.879 754.303C253.879 751.927 255.805 750 258.182 750C260.558 750 262.485 751.927 262.485 754.303C262.485 756.68 260.558 758.606 258.182 758.606ZM213 754.303C213 756.68 214.927 758.606 217.303 758.606C219.68 758.606 221.606 756.68 221.606 754.303C221.606 751.927 219.68 750 217.303 750C214.927 750 213 751.927 213 754.303ZM376.515 795.182C376.515 797.558 378.442 799.485 380.818 799.485C383.195 799.485 385.121 797.558 385.121 795.182C385.121 792.805 383.195 790.879 380.818 790.879C378.442 790.879 376.515 792.805 376.515 795.182ZM339.939 799.485C337.563 799.485 335.636 797.558 335.636 795.182C335.636 792.805 337.563 790.879 339.939 790.879C342.316 790.879 344.242 792.805 344.242 795.182C344.242 797.558 342.316 799.485 339.939 799.485ZM335.636 836.061C335.636 838.437 337.563 840.364 339.939 840.364C342.316 840.364 344.242 838.437 344.242 836.061C344.242 833.684 342.316 831.758 339.939 831.758C337.563 831.758 335.636 833.684 335.636 836.061ZM339.939 881.242C337.563 881.242 335.636 879.316 335.636 876.939C335.636 874.563 337.563 872.636 339.939 872.636C342.316 872.636 344.242 874.563 344.242 876.939C344.242 879.316 342.316 881.242 339.939 881.242ZM335.636 917.818C335.636 920.195 337.563 922.121 339.939 922.121C342.316 922.121 344.242 920.195 344.242 917.818C344.242 915.442 342.316 913.515 339.939 913.515C337.563 913.515 335.636 915.442 335.636 917.818ZM339.939 963C337.563 963 335.636 961.073 335.636 958.697C335.636 956.32 337.563 954.394 339.939 954.394C342.316 954.394 344.242 956.32 344.242 958.697C344.242 961.073 342.316 963 339.939 963ZM294.758 795.182C294.758 797.558 296.684 799.485 299.061 799.485C301.437 799.485 303.364 797.558 303.364 795.182C303.364 792.805 301.437 790.879 299.061 790.879C296.684 790.879 294.758 792.805 294.758 795.182ZM258.182 799.485C255.805 799.485 253.879 797.558 253.879 795.182C253.879 792.805 255.805 790.879 258.182 790.879C260.558 790.879 262.485 792.805 262.485 795.182C262.485 797.558 260.558 799.485 258.182 799.485ZM213 795.182C213 797.558 214.927 799.485 217.303 799.485C219.68 799.485 221.606 797.558 221.606 795.182C221.606 792.805 219.68 790.879 217.303 790.879C214.927 790.879 213 792.805 213 795.182ZM421.697 840.364C419.32 840.364 417.394 838.437 417.394 836.061C417.394 833.684 419.32 831.758 421.697 831.758C424.073 831.758 426 833.684 426 836.061C426 838.437 424.073 840.364 421.697 840.364ZM376.515 836.061C376.515 838.437 378.442 840.364 380.818 840.364C383.195 840.364 385.121 838.437 385.121 836.061C385.121 833.684 383.195 831.758 380.818 831.758C378.442 831.758 376.515 833.684 376.515 836.061ZM299.061 840.364C296.684 840.364 294.758 838.437 294.758 836.061C294.758 833.684 296.684 831.758 299.061 831.758C301.437 831.758 303.364 833.684 303.364 836.061C303.364 838.437 301.437 840.364 299.061 840.364ZM253.879 836.061C253.879 838.437 255.805 840.364 258.182 840.364C260.558 840.364 262.485 838.437 262.485 836.061C262.485 833.684 260.558 831.758 258.182 831.758C255.805 831.758 253.879 833.684 253.879 836.061ZM217.303 840.364C214.927 840.364 213 838.437 213 836.061C213 833.684 214.927 831.758 217.303 831.758C219.68 831.758 221.606 833.684 221.606 836.061C221.606 838.437 219.68 840.364 217.303 840.364ZM417.394 876.939C417.394 879.316 419.32 881.242 421.697 881.242C424.073 881.242 426 879.316 426 876.939C426 874.563 424.073 872.636 421.697 872.636C419.32 872.636 417.394 874.563 417.394 876.939ZM380.818 881.242C378.442 881.242 376.515 879.316 376.515 876.939C376.515 874.563 378.442 872.636 380.818 872.636C383.195 872.636 385.121 874.563 385.121 876.939C385.121 879.316 383.195 881.242 380.818 881.242ZM294.758 876.939C294.758 879.316 296.684 881.242 299.061 881.242C301.437 881.242 303.364 879.316 303.364 876.939C303.364 874.563 301.437 872.636 299.061 872.636C296.684 872.636 294.758 874.563 294.758 876.939ZM258.182 881.242C255.805 881.242 253.879 879.316 253.879 876.939C253.879 874.563 255.805 872.636 258.182 872.636C260.558 872.636 262.485 874.563 262.485 876.939C262.485 879.316 260.558 881.242 258.182 881.242ZM213 876.939C213 879.316 214.927 881.242 217.303 881.242C219.68 881.242 221.606 879.316 221.606 876.939C221.606 874.563 219.68 872.636 217.303 872.636C214.927 872.636 213 874.563 213 876.939ZM421.697 922.121C419.32 922.121 417.394 920.195 417.394 917.818C417.394 915.442 419.32 913.515 421.697 913.515C424.073 913.515 426 915.442 426 917.818C426 920.195 424.073 922.121 421.697 922.121ZM376.515 917.818C376.515 920.195 378.442 922.121 380.818 922.121C383.195 922.121 385.121 920.195 385.121 917.818C385.121 915.442 383.195 913.515 380.818 913.515C378.442 913.515 376.515 915.442 376.515 917.818ZM299.061 922.121C296.684 922.121 294.758 920.195 294.758 917.818C294.758 915.442 296.684 913.515 299.061 913.515C301.437 913.515 303.364 915.442 303.364 917.818C303.364 920.195 301.437 922.121 299.061 922.121ZM253.879 917.818C253.879 920.195 255.805 922.121 258.182 922.121C260.558 922.121 262.485 920.195 262.485 917.818C262.485 915.442 260.558 913.515 258.182 913.515C255.805 913.515 253.879 915.442 253.879 917.818ZM217.303 922.121C214.927 922.121 213 920.195 213 917.818C213 915.442 214.927 913.515 217.303 913.515C219.68 913.515 221.606 915.442 221.606 917.818C221.606 920.195 219.68 922.121 217.303 922.121ZM417.394 958.697C417.394 961.073 419.32 963 421.697 963C424.073 963 426 961.073 426 958.697C426 956.32 424.073 954.394 421.697 954.394C419.32 954.394 417.394 956.32 417.394 958.697ZM380.818 963C378.442 963 376.515 961.073 376.515 958.697C376.515 956.32 378.442 954.394 380.818 954.394C383.195 954.394 385.121 956.32 385.121 958.697C385.121 961.073 383.195 963 380.818 963ZM294.758 958.697C294.758 961.073 296.684 963 299.061 963C301.437 963 303.364 961.073 303.364 958.697C303.364 956.32 301.437 954.394 299.061 954.394C296.684 954.394 294.758 956.32 294.758 958.697ZM258.182 963C255.805 963 253.879 961.073 253.879 958.697C253.879 956.32 255.805 954.394 258.182 954.394C260.558 954.394 262.485 956.32 262.485 958.697C262.485 961.073 260.558 963 258.182 963ZM213 958.697C213 961.073 214.927 963 217.303 963C219.68 963 221.606 961.073 221.606 958.697C221.606 956.32 219.68 954.394 217.303 954.394C214.927 954.394 213 956.32 213 958.697Z" fill="url(#paint0_linear)"/>
<circle opacity="0.3" cx="368.5" cy="57.5" r="47.5" fill="#B2A5F7"/>
<circle cx="368.5" cy="57.4998" r="15.7634" fill="#B2A5F7"/>
</g>
<defs>
<linearGradient id="paint0_linear" x1="426" y1="856.5" x2="213" y2="856.5" gradientUnits="userSpaceOnUse">
<stop stop-color="#E0DDF7"/>
<stop offset="1" stop-color="#E0DDF7" stop-opacity="0"/>
</linearGradient>
<clipPath id="clip0">
<rect width="375" height="930" fill="white"/>
</clipPath>
</defs>
</svg>
