<svg width="414" height="1126" viewBox="0 0 414 1126" fill="none" xmlns="http://www.w3.org/2000/svg">
<g clip-path="url(#clip0)">
<rect width="414" height="1126" fill="white"/>
<circle cx="385" cy="115" r="60" fill="#FBD928" fill-opacity="0.4"/>
<circle cx="385" cy="115" r="16.2914" fill="#FBD928"/>
<path d="M-332.843 777.844C-472.854 863.045 -565.651 705.529 -609.337 639.256C-653.023 572.983 -678.618 507.776 -619.607 380.438C-517.909 160.986 -515.758 173.157 -543.81 -17.7143C-571.861 -208.585 -379.583 -229.177 -312.645 -222.654C-218.086 -213.438 -163.075 -63.5282 -19.4882 -128.273C124.098 -193.019 201.001 -99.7577 221.641 16.5045C242.282 132.767 174.601 194.112 155.484 270.627C119.449 414.848 195.67 546.713 78.3462 647.825C-23.3556 735.474 -187.594 615.498 -332.843 777.844Z" fill="#F8F8FB"/>
<path d="M1133.21 1435.56C1176.71 1593.58 999.777 1639.58 924.059 1663.4C848.341 1687.22 778.613 1693.93 672.361 1602.24C489.248 1444.22 501.541 1445.49 310.301 1420.08C119.061 1394.66 152.032 1204.12 176.676 1141.54C211.491 1053.14 370.742 1041.39 347.892 885.546C325.042 729.703 435.828 681.35 553.29 693.411C670.753 705.472 711.167 787.391 779.496 826.775C908.29 901.008 1056.01 863.906 1121.04 1004.48C1177.41 1126.33 1016.96 1251.33 1133.21 1435.56Z" fill="#F8F8FB"/>
<path fill-rule="evenodd" clip-rule="evenodd" d="M384.545 542.727C382.638 542.727 381.091 541.181 381.091 539.273C381.091 537.365 382.638 535.818 384.545 535.818C386.453 535.818 388 537.365 388 539.273C388 541.181 386.453 542.727 384.545 542.727ZM381.091 506.455C381.091 508.363 382.637 509.909 384.545 509.909C386.453 509.909 388 508.363 388 506.455C388 504.547 386.453 503 384.545 503C382.637 503 381.091 504.547 381.091 506.455ZM348.273 506.455C348.273 508.362 349.819 509.909 351.727 509.909C353.635 509.909 355.182 508.362 355.182 506.455C355.182 504.547 353.635 503 351.727 503C349.819 503 348.273 504.547 348.273 506.455ZM318.909 509.909C317.001 509.909 315.455 508.362 315.455 506.455C315.455 504.547 317.001 503 318.909 503C320.817 503 322.364 504.547 322.364 506.455C322.364 508.362 320.817 509.909 318.909 509.909ZM282.636 506.455C282.636 508.362 284.183 509.909 286.091 509.909C287.999 509.909 289.545 508.362 289.545 506.455C289.545 504.547 287.999 503 286.091 503C284.183 503 282.636 504.547 282.636 506.455ZM253.273 509.909C251.365 509.909 249.818 508.362 249.818 506.455C249.818 504.547 251.365 503 253.273 503C255.181 503 256.727 504.547 256.727 506.455C256.727 508.362 255.181 509.909 253.273 509.909ZM217 506.455C217 508.362 218.547 509.909 220.455 509.909C222.362 509.909 223.909 508.362 223.909 506.455C223.909 504.547 222.362 503 220.455 503C218.547 503 217 504.547 217 506.455ZM348.273 539.273C348.273 541.181 349.819 542.727 351.727 542.727C353.635 542.727 355.182 541.181 355.182 539.273C355.182 537.365 353.635 535.818 351.727 535.818C349.819 535.818 348.273 537.365 348.273 539.273ZM318.909 542.727C317.001 542.727 315.455 541.181 315.455 539.273C315.455 537.365 317.001 535.818 318.909 535.818C320.817 535.818 322.364 537.365 322.364 539.273C322.364 541.181 320.817 542.727 318.909 542.727ZM315.455 572.091C315.455 573.999 317.001 575.545 318.909 575.545C320.817 575.545 322.364 573.999 322.364 572.091C322.364 570.183 320.817 568.636 318.909 568.636C317.001 568.636 315.455 570.183 315.455 572.091ZM318.909 608.364C317.001 608.364 315.455 606.817 315.455 604.909C315.455 603.001 317.001 601.455 318.909 601.455C320.817 601.455 322.364 603.001 322.364 604.909C322.364 606.817 320.817 608.364 318.909 608.364ZM315.455 637.727C315.455 639.635 317.001 641.182 318.909 641.182C320.817 641.182 322.364 639.635 322.364 637.727C322.364 635.819 320.817 634.273 318.909 634.273C317.001 634.273 315.455 635.819 315.455 637.727ZM318.909 674C317.001 674 315.455 672.453 315.455 670.545C315.455 668.638 317.001 667.091 318.909 667.091C320.817 667.091 322.364 668.638 322.364 670.545C322.364 672.453 320.817 674 318.909 674ZM282.636 539.273C282.636 541.181 284.183 542.727 286.091 542.727C287.999 542.727 289.545 541.181 289.545 539.273C289.545 537.365 287.999 535.818 286.091 535.818C284.183 535.818 282.636 537.365 282.636 539.273ZM253.273 542.727C251.365 542.727 249.818 541.181 249.818 539.273C249.818 537.365 251.365 535.818 253.273 535.818C255.181 535.818 256.727 537.365 256.727 539.273C256.727 541.181 255.181 542.727 253.273 542.727ZM217 539.273C217 541.181 218.547 542.727 220.455 542.727C222.362 542.727 223.909 541.181 223.909 539.273C223.909 537.365 222.362 535.818 220.455 535.818C218.547 535.818 217 537.365 217 539.273ZM384.545 575.545C382.638 575.545 381.091 573.999 381.091 572.091C381.091 570.183 382.638 568.636 384.545 568.636C386.453 568.636 388 570.183 388 572.091C388 573.999 386.453 575.545 384.545 575.545ZM348.273 572.091C348.273 573.999 349.819 575.545 351.727 575.545C353.635 575.545 355.182 573.999 355.182 572.091C355.182 570.183 353.635 568.636 351.727 568.636C349.819 568.636 348.273 570.183 348.273 572.091ZM286.091 575.545C284.183 575.545 282.636 573.999 282.636 572.091C282.636 570.183 284.183 568.636 286.091 568.636C287.999 568.636 289.545 570.183 289.545 572.091C289.545 573.999 287.999 575.545 286.091 575.545ZM249.818 572.091C249.818 573.999 251.365 575.545 253.273 575.545C255.181 575.545 256.727 573.999 256.727 572.091C256.727 570.183 255.181 568.636 253.273 568.636C251.365 568.636 249.818 570.183 249.818 572.091ZM220.455 575.545C218.547 575.545 217 573.999 217 572.091C217 570.183 218.547 568.636 220.455 568.636C222.362 568.636 223.909 570.183 223.909 572.091C223.909 573.999 222.362 575.545 220.455 575.545ZM381.091 604.909C381.091 606.817 382.638 608.364 384.545 608.364C386.453 608.364 388 606.817 388 604.909C388 603.001 386.453 601.455 384.545 601.455C382.638 601.455 381.091 603.001 381.091 604.909ZM351.727 608.364C349.819 608.364 348.273 606.817 348.273 604.909C348.273 603.001 349.819 601.455 351.727 601.455C353.635 601.455 355.182 603.001 355.182 604.909C355.182 606.817 353.635 608.364 351.727 608.364ZM282.636 604.909C282.636 606.817 284.183 608.364 286.091 608.364C287.999 608.364 289.545 606.817 289.545 604.909C289.545 603.001 287.999 601.455 286.091 601.455C284.183 601.455 282.636 603.001 282.636 604.909ZM253.273 608.364C251.365 608.364 249.818 606.817 249.818 604.909C249.818 603.001 251.365 601.455 253.273 601.455C255.181 601.455 256.727 603.001 256.727 604.909C256.727 606.817 255.181 608.364 253.273 608.364ZM217 604.909C217 606.817 218.547 608.364 220.455 608.364C222.362 608.364 223.909 606.817 223.909 604.909C223.909 603.001 222.362 601.455 220.455 601.455C218.547 601.455 217 603.001 217 604.909ZM384.545 641.182C382.638 641.182 381.091 639.635 381.091 637.727C381.091 635.819 382.638 634.273 384.545 634.273C386.453 634.273 388 635.819 388 637.727C388 639.635 386.453 641.182 384.545 641.182ZM348.273 637.727C348.273 639.635 349.819 641.182 351.727 641.182C353.635 641.182 355.182 639.635 355.182 637.727C355.182 635.819 353.635 634.273 351.727 634.273C349.819 634.273 348.273 635.819 348.273 637.727ZM286.091 641.182C284.183 641.182 282.636 639.635 282.636 637.727C282.636 635.819 284.183 634.273 286.091 634.273C287.999 634.273 289.545 635.819 289.545 637.727C289.545 639.635 287.999 641.182 286.091 641.182ZM249.818 637.727C249.818 639.635 251.365 641.182 253.273 641.182C255.181 641.182 256.727 639.635 256.727 637.727C256.727 635.819 255.181 634.273 253.273 634.273C251.365 634.273 249.818 635.819 249.818 637.727ZM220.455 641.182C218.547 641.182 217 639.635 217 637.727C217 635.819 218.547 634.273 220.455 634.273C222.362 634.273 223.909 635.819 223.909 637.727C223.909 639.635 222.362 641.182 220.455 641.182ZM381.091 670.545C381.091 672.453 382.638 674 384.545 674C386.453 674 388 672.453 388 670.545C388 668.638 386.453 667.091 384.545 667.091C382.638 667.091 381.091 668.638 381.091 670.545ZM351.727 674C349.819 674 348.273 672.453 348.273 670.545C348.273 668.638 349.819 667.091 351.727 667.091C353.635 667.091 355.182 668.638 355.182 670.545C355.182 672.453 353.635 674 351.727 674ZM282.636 670.545C282.636 672.453 284.183 674 286.091 674C287.999 674 289.545 672.453 289.545 670.545C289.545 668.638 287.999 667.091 286.091 667.091C284.183 667.091 282.636 668.638 282.636 670.545ZM253.273 674C251.365 674 249.818 672.453 249.818 670.545C249.818 668.638 251.365 667.091 253.273 667.091C255.181 667.091 256.727 668.638 256.727 670.545C256.727 672.453 255.181 674 253.273 674ZM217 670.545C217 672.453 218.547 674 220.455 674C222.362 674 223.909 672.453 223.909 670.545C223.909 668.638 222.362 667.091 220.455 667.091C218.547 667.091 217 668.638 217 670.545Z" fill="url(#paint0_linear)"/>
</g>
<defs>
<linearGradient id="paint0_linear" x1="388" y1="588.5" x2="217" y2="588.5" gradientUnits="userSpaceOnUse">
<stop stop-color="#E0DDF7"/>
<stop offset="1" stop-color="#E0DDF7" stop-opacity="0"/>
</linearGradient>
<clipPath id="clip0">
<rect width="414" height="1126" fill="white"/>
</clipPath>
</defs>
</svg>
