<svg width="150" height="150" viewBox="0 0 150 150" fill="none" xmlns="http://www.w3.org/2000/svg">
<mask id="mask0" mask-type="alpha" maskUnits="userSpaceOnUse" x="0" y="0" width="150" height="150">
<path d="M0 20C0 8.9543 8.95431 0 20 0H130C141.046 0 150 8.95431 150 20V130C150 141.046 141.046 150 130 150H20C8.9543 150 0 141.046 0 130V20Z" fill="#C4C4C4"/>
</mask>
<g mask="url(#mask0)">
<rect x="9.27832" y="9.27832" width="131.443" height="131.443" fill="#513CC5"/>
<path d="M13.9175 136.082H19.7369V130.263H13.9175V136.082ZM19.7369 136.082H25.5492V130.263H19.7369V136.082ZM25.5492 136.082H31.3686V130.263H25.5492V136.082ZM31.3686 136.082H37.188V130.263H31.3686V136.082ZM37.188 136.082H43.0074V130.263H37.188V136.082ZM43.0074 136.082H48.8197V130.263H43.0074V136.082ZM48.8197 136.082H54.6391V130.263H48.8197V136.082ZM60.4586 136.082H66.2995V130.263H60.4873V136.082H60.4586ZM66.2995 136.082H72.1189V130.263H66.2995V136.082ZM77.9384 136.082H83.7578V130.263H77.9097V136.082H77.9384ZM107 136.082H112.812V130.263H107V136.082ZM112.812 136.082H118.631V130.263H112.812V136.082ZM118.631 136.082H124.422V130.263H118.603V136.082H118.631ZM13.9175 130.263H19.7369V124.422H13.9175V130.234V130.263ZM48.8197 130.234H54.6391V124.422H48.8197V130.234ZM60.4586 130.234H66.2995V124.422H60.4873V130.234H60.4586ZM66.2995 130.234H72.1189V124.422H66.2995V130.234ZM101.209 130.234H107.028V124.422H101.209V130.234ZM107.028 130.234H112.841V124.422H107.028V130.234ZM118.66 130.234H124.422V124.422H118.603V130.234H118.66ZM130.234 130.234H136.054V124.422H130.234V130.234ZM13.9175 124.422H19.7369V118.603H13.9175V124.422ZM25.5492 124.422H31.3686V118.603H25.5492V124.422ZM31.3686 124.422H37.188V118.603H31.3686V124.422ZM37.188 124.422H43.0074V118.603H37.188V124.422ZM48.8197 124.422H54.6391V118.603H48.8197V124.422ZM60.4586 124.422H66.2995V118.603H60.4873V124.422H60.4586ZM77.9384 124.422H83.7578V118.603H77.9097V124.422H77.9384ZM101.18 124.422H107V118.603H101.18V124.422ZM107 124.422H112.812V118.603H107V124.422ZM112.812 124.422H118.631V118.603H112.812V124.422ZM118.631 124.422H124.422V118.603H118.603V124.422H118.631ZM13.9175 118.631H19.7369V112.812H13.9175V118.631ZM25.5492 118.631H31.3686V112.812H25.5492V118.631ZM31.3686 118.631H37.188V112.812H31.3686V118.631ZM37.188 118.631H43.0074V112.812H37.188V118.631ZM48.8197 118.631H54.6391V112.812H48.8197V118.631ZM60.4586 118.631H66.2995V112.812H60.4873V118.631H60.4586ZM83.7578 118.631H89.5701V112.812H83.7578V118.631ZM101.209 118.631H107.028V112.812H101.209V118.631ZM107.028 118.631H112.841V112.812H107.028V118.631ZM112.841 118.631H118.66V112.812H112.841V118.631ZM13.9175 112.812H19.7369V107H13.9175V112.812ZM25.5492 112.812H31.3686V107H25.5492V112.812ZM31.3686 112.812H37.188V107H31.3686V112.812ZM37.188 112.812H43.0074V107H37.188V112.812ZM48.8197 112.812H54.6391V107H48.8197V112.812ZM60.4586 112.812H66.2995V107H60.4873V112.812H60.4586ZM83.7578 112.812H89.5701V107H83.7578V112.812ZM107.028 112.812H112.841V107H107.028V112.812ZM118.66 112.812H124.422V107H118.603V112.812H118.66ZM124.422 112.812H130.234V107H124.422V112.812ZM13.9175 107H19.7369V101.18H13.9175V107ZM48.8197 107H54.6391V101.18H48.8197V107ZM72.0902 107H77.9097V101.18H72.0902V107ZM77.9097 107H83.7291V101.18H77.9097V107ZM83.7291 107H89.5414V101.18H83.7291V107ZM95.3608 107H101.18V101.18H95.3608V107ZM101.18 107H107V101.18H101.18V107ZM112.812 107H118.631V101.18H112.812V107ZM130.263 107H136.082V101.18H130.263V107ZM13.9175 101.18H19.7369V95.3608H13.9175V101.18ZM19.7369 101.18H25.5492V95.3608H19.7369V101.18ZM25.5492 101.18H31.3686V95.3608H25.5492V101.18ZM31.3686 101.18H37.188V95.3608H31.3686V101.18ZM37.188 101.18H43.0074V95.3608H37.188V101.18ZM43.0074 101.18H48.8197V95.3608H43.0074V101.18ZM48.8197 101.18H54.6391V95.3608H48.8197V101.18ZM60.4586 101.18H66.2995V95.3608H60.4873V101.18H60.4586ZM83.7578 101.18H89.5701V95.3608H83.7578V101.18ZM89.5701 101.18H95.3895V95.3608H89.5701V101.18ZM118.66 101.18H124.422V95.3608H118.603V101.18H118.66ZM124.422 101.18H130.234V95.3608H124.422V101.18ZM130.234 101.18H136.054V95.3608H130.234V101.18ZM60.4586 95.3608H66.2995V89.5414H60.4873V95.3608H60.4586ZM72.1189 95.3608H77.9384V89.5414H72.0902V95.3608H72.1189ZM77.9097 95.3608H83.7291V89.5414H77.9097V95.3608ZM83.7291 95.3608H89.5414V89.5414H83.7291V95.3608ZM89.5414 95.3608H95.3608V89.5414H89.5414V95.3608ZM95.3608 95.3608H101.18V89.5414H95.3608V95.3608ZM101.18 95.3608H107V89.5414H101.18V95.3608ZM112.812 95.3608H118.631V89.5414H112.812V95.3608ZM118.631 95.3608H124.422V89.5414H118.603V95.3608H118.631ZM124.422 95.3608H130.234V89.5414H124.422V95.3608ZM13.9175 89.5414H19.7369V83.7292H13.9175V89.5414ZM25.5492 89.5414H31.3686V83.7292H25.5492V89.5414ZM31.3686 89.5414H37.188V83.7292H31.3686V89.5414ZM48.8197 89.5414H54.6391V83.7292H48.8197V89.5414ZM77.9097 89.5414H83.7291V83.7292H77.9097V89.5414ZM95.3608 89.5414H101.18V83.7292H95.3608V89.5414ZM118.631 89.5414H124.422V83.7292H118.603V89.5414H118.631ZM13.9175 83.7292H19.7369V77.9097H13.9175V83.7292ZM19.7369 83.7292H25.5492V77.9097H19.7369V83.7292ZM43.0074 83.7292H48.8197V77.9097H43.0074V83.7292ZM54.6391 83.7292H60.4586V77.9097H54.6391V83.7292ZM60.4586 83.7292H66.2995V77.9097H60.4873V83.7292H60.4586ZM107.028 83.7292H112.841V77.9097H107.028V83.7292ZM118.66 83.7292H124.422V77.9097H118.603V83.7292H118.66ZM13.9175 77.9097H19.7369V72.0903H13.9175V77.9097ZM25.5492 77.9097H31.3686V72.0903H25.5492V77.9097ZM31.3686 77.9097H37.188V72.0903H31.3686V77.9097ZM37.188 77.9097H43.0074V72.0903H37.188V77.9097ZM43.0074 77.9097H48.8197V72.0903H43.0074V77.9097ZM48.8197 77.9097H54.6391V72.0903H48.8197V77.9097ZM60.4586 77.9097H66.2995V72.0903H60.4873V77.9097H60.4586ZM77.9384 77.9097H83.7578V72.0903H77.9097V77.9097H77.9384ZM95.3608 77.9097H101.18V72.0903H95.3608V77.9097ZM112.812 77.9097H118.631V72.0903H112.812V77.9097ZM118.631 77.9097H124.422V72.0903H118.603V77.9097H118.631ZM124.422 77.9097H130.234V72.0903H124.422V77.9097ZM13.9175 72.0903H19.7369V66.2996H13.9175V72.1118V72.0903ZM19.7369 72.1118H25.5492V66.2996H19.7369V72.1118ZM25.5492 72.1118H31.3686V66.2996H25.5492V72.1118ZM43.0074 72.1118H48.8197V66.2996H43.0074V72.1118ZM60.4586 72.1118H66.2995V66.2996H60.4873V72.1118H60.4586ZM66.2995 72.1118H72.1189V66.2996H66.2995V72.1118ZM72.1189 72.1118H77.9384V66.2996H72.0902V72.1118H72.1189ZM83.7291 72.1118H89.5414V66.2996H83.7291V72.1118ZM89.5414 72.1118H95.3608V66.2996H89.5414V72.1118ZM112.812 72.1118H118.631V66.2996H112.812V72.1118ZM118.631 72.1118H124.422V66.2996H118.603V72.1118H118.631ZM124.422 72.1118H130.234V66.2996H124.422V72.1118ZM13.9175 66.2996H19.7369V60.4586H13.9175V66.2996ZM19.7369 66.2996H25.5492V60.4586H19.7369V66.2996ZM25.5492 66.2996H31.3686V60.4586H25.5492V66.2996ZM31.3686 66.2996H37.188V60.4586H31.3686V66.2996ZM37.188 66.2996H43.0074V60.4586H37.188V66.2996ZM48.8197 66.2996H54.6391V60.4586H48.8197V66.2996ZM54.6391 66.2996H60.4586V60.4586H54.6391V66.2996ZM60.4586 66.2996H66.2995V60.4586H60.4873V66.2996H60.4586ZM66.2995 66.2996H72.1189V60.4586H66.2995V66.2996ZM83.7578 66.2996H89.5701V60.4586H83.7578V66.2996ZM89.5701 66.2996H95.3895V60.4586H89.5701V66.2996ZM101.209 66.2996H107.028V60.4586H101.209V66.2996ZM112.841 66.2996H118.66V60.4586H112.841V66.2996ZM124.422 66.2996H130.234V60.4586H124.422V66.2996ZM72.04 60.4801H77.8594V54.6392H72.0902V60.4586L72.04 60.4801ZM77.9097 60.4586H83.7291V54.6392H77.9097V60.4586ZM83.7291 60.4586H89.5414V54.6392H83.7291V60.4586ZM13.9175 54.6392H19.7369V48.8198H13.9175V54.6392ZM19.7369 54.6392H25.5492V48.8198H19.7369V54.6392ZM25.5492 54.6392H31.3686V48.8198H25.5492V54.6392ZM31.3686 54.6392H37.188V48.8198H31.3686V54.6392ZM37.188 54.6392H43.0074V48.8198H37.188V54.6392ZM43.0074 54.6392H48.8197V48.8198H43.0074V54.6392ZM48.8197 54.6392H54.6391V48.8198H48.8197V54.6392ZM60.4586 54.6392H66.2995V48.8198H60.4873V54.6392H60.4586ZM72.1189 54.6392H77.9384V48.8198H72.0902V54.6392H72.1189ZM83.7291 54.6392H89.5414V48.8198H83.7291V54.6392ZM95.3608 54.6392H101.18V48.8198H95.3608V54.6392ZM101.18 54.6392H107V48.8198H101.18V54.6392ZM107 54.6392H112.812V48.8198H107V54.6392ZM112.812 54.6392H118.631V48.8198H112.812V54.6392ZM118.631 54.6392H124.422V48.8198H118.603V54.6392H118.631ZM124.422 54.6392H130.234V48.8198H124.422V54.6392ZM130.234 54.6392H136.054V48.8198H130.234V54.6392ZM13.9175 48.8198H19.7369V43.0075H13.9175V48.8198ZM48.8197 48.8198H54.6391V43.0075H48.8197V48.8198ZM60.4586 48.8198H66.2995V43.0075H60.4873V48.8198H60.4586ZM66.2995 48.8198H72.1189V43.0075H66.2995V48.8198ZM72.1189 48.8198H77.9384V43.0075H72.0902V48.8198H72.1189ZM83.7291 48.8198H89.5414V43.0075H83.7291V48.8198ZM95.3608 48.8198H101.18V43.0075H95.3608V48.8198ZM130.263 48.8198H136.082V43.0075H130.263V48.8198ZM13.9175 43.0075H19.7369V37.1881H13.9175V43.0075ZM25.5492 43.0075H31.3686V37.1881H25.5492V43.0075ZM31.3686 43.0075H37.188V37.1881H31.3686V43.0075ZM37.188 43.0075H43.0074V37.1881H37.188V43.0075ZM48.8197 43.0075H54.6391V37.1881H48.8197V43.0075ZM72.0902 43.0075H77.9097V37.1881H72.0902V43.0075ZM77.9097 43.0075H83.7291V37.1881H77.9097V43.0075ZM83.7291 43.0075H89.5414V37.1881H83.7291V43.0075ZM95.3608 43.0075H101.18V37.1881H95.3608V43.0075ZM107 43.0075H112.812V37.1881H107V43.0075ZM112.812 43.0075H118.631V37.1881H112.812V43.0075ZM118.631 43.0075H124.422V37.1881H118.603V43.0075H118.631ZM130.234 43.0075H136.054V37.1881H130.234V43.0075ZM13.9175 37.1881H19.7369V31.3687H13.9175V37.1881ZM25.5492 37.1881H31.3686V31.3687H25.5492V37.1881ZM31.3686 37.1881H37.188V31.3687H31.3686V37.1881ZM37.188 37.1881H43.0074V31.3687H37.188V37.1881ZM48.8197 37.1881H54.6391V31.3687H48.8197V37.1881ZM60.4586 37.1881H66.2995V31.3687H60.4873V37.1881H60.4586ZM77.9384 37.1881H83.7578V31.3687H77.9097V37.1881H77.9384ZM95.3608 37.1881H101.18V31.3687H95.3608V37.1881ZM107 37.1881H112.812V31.3687H107V37.1881ZM112.812 37.1881H118.631V31.3687H112.812V37.1881ZM118.631 37.1881H124.422V31.3687H118.603V37.1881H118.631ZM130.234 37.1881H136.054V31.3687H130.234V37.1881ZM13.9175 31.3687H19.7369V25.5492H13.9175V31.3687ZM25.5492 31.3687H31.3686V25.5492H25.5492V31.3687ZM31.3686 31.3687H37.188V25.5492H31.3686V31.3687ZM37.188 31.3687H43.0074V25.5492H37.188V31.3687ZM48.8197 31.3687H54.6391V25.5492H48.8197V31.3687ZM66.2708 31.3687H72.0902V25.5492H66.2995V31.3687H66.2708ZM95.3895 31.3687H101.209V25.5492H95.3608V31.3687H95.3895ZM107 31.3687H112.812V25.5492H107V31.3687ZM112.812 31.3687H118.631V25.5492H112.812V31.3687ZM118.631 31.3687H124.422V25.5492H118.603V31.3687H118.631ZM130.234 31.3687H136.054V25.5492H130.234V31.3687ZM13.9175 25.5492H19.7369V19.737H13.9175V25.5492ZM48.8197 25.5492H54.6391V19.737H48.8197V25.5492ZM60.4586 25.5492H66.2995V19.737H60.4873V25.5492H60.4586ZM77.9384 25.5492H83.7578V19.737H77.9097V25.5492H77.9384ZM95.3608 25.5492H101.18V19.737H95.3608V25.5492ZM130.263 25.5492H136.082V19.737H130.263V25.5492ZM13.9175 19.737H19.7369V13.9175H13.9175V19.737ZM19.7369 19.737H25.5492V13.9175H19.7369V19.737ZM25.5492 19.737H31.3686V13.9175H25.5492V19.737ZM31.3686 19.737H37.188V13.9175H31.3686V19.737ZM37.188 19.737H43.0074V13.9175H37.188V19.737ZM43.0074 19.737H48.8197V13.9175H43.0074V19.737ZM48.8197 19.737H54.6391V13.9175H48.8197V19.737ZM66.2995 19.737H72.1189V13.9175H66.2995V19.737ZM83.7578 19.737H89.5701V13.9175H83.7578V19.737ZM95.3895 19.737H101.209V13.9175H95.3608V19.737H95.3895ZM101.18 19.737H107V13.9175H101.18V19.737ZM107 19.737H112.812V13.9175H107V19.737ZM112.812 19.737H118.631V13.9175H112.812V19.737ZM118.631 19.737H124.422V13.9175H118.603V19.737H118.631ZM124.422 19.737H130.234V13.9175H124.422V19.737ZM130.234 19.737H136.054V13.9175H130.234V19.737Z" fill="white"/>
</g>
</svg>
