<svg width="435" height="452" viewBox="0 0 435 452" fill="none" xmlns="http://www.w3.org/2000/svg">
<mask id="mask0" mask-type="alpha" maskUnits="userSpaceOnUse" x="0" y="0" width="435" height="452">
<path d="M0 40C0 17.9086 17.9086 0 40 0H395C417.091 0 435 17.9086 435 40V412C435 434.091 417.091 452 395 452H40C17.9086 452 0 434.091 0 412V40Z" fill="#654CF0"/>
</mask>
<g mask="url(#mask0)">
<path d="M-387.983 713.71C-532.705 795.343 -609.664 608.631 -646.592 529.602C-683.521 450.573 -702.819 374.585 -633.721 237.286C-514.64 0.668828 -513.611 14.5836 -524.181 -203.075C-534.751 -420.734 -344.545 -424.338 -279.543 -410.184C-187.717 -390.188 -147.104 -215.882 -0.690602 -274.131C145.723 -332.381 194.828 -215.848 215.579 -85.6328C236.329 44.582 160.899 108.432 135.389 192.595C87.3061 351.232 150.297 507.389 26.3925 609.238C-81.0142 697.527 -231.293 545.791 -387.983 713.71Z" fill="#513CC5"/>
</g>
</svg>
