<svg width="33" height="33" viewBox="0 0 33 33" fill="none" xmlns="http://www.w3.org/2000/svg">
<path d="M5.5844 27.2682C2.23839 23.9207 2.52643 19.6343 6.35469 15.8022L18.2143 3.98208C18.5223 3.67358 19.6671 2.63764 21.3929 2.31858C22.5799 2.09915 24.3405 2.18364 25.9883 3.83149C25.9886 3.83173 25.9903 3.83341 25.992 3.8351C27.6781 5.52123 27.8147 7.21765 27.6318 8.344C27.3691 9.96396 26.346 11.1329 25.9184 11.5601L13.993 23.4488C13.5539 23.8885 12.5219 24.9224 11.1128 24.9324C10.2518 24.9386 9.44148 24.5679 8.70509 23.8315C8.7034 23.8294 8.70172 23.8277 8.70003 23.8265C7.31105 22.4375 7.54278 20.5452 9.32025 18.7648L21.17 6.90258L22.6158 8.34645L10.7658 20.2084C9.40311 21.5731 9.92452 22.1199 10.1603 22.3556C10.1639 22.3593 10.167 22.3624 10.1692 22.3645C10.5097 22.7051 10.8317 22.8762 11.1271 22.8741C11.683 22.8701 12.2675 22.2846 12.5484 22.0033L24.4745 10.1138C24.7569 9.83145 25.4346 9.06269 25.5997 8.04269C25.7544 7.09043 25.3928 6.16755 24.5255 5.30016C24.5247 5.29944 24.524 5.29871 24.5233 5.29799C24.5233 5.29799 24.523 5.29775 24.5228 5.29751C23.6992 4.47395 22.763 4.15272 21.7387 4.34189C20.8368 4.50885 20.0541 5.03099 19.6579 5.42765L7.79856 17.2475C6.06359 18.9844 3.65649 22.4077 7.0497 25.8024C10.2026 28.9543 13.3921 27.0882 15.5125 24.9678L25.2932 15.126L26.743 16.5659L16.9598 26.4102C13.0722 30.2978 8.92681 30.6096 5.5844 27.2682Z" fill="#B2A5F7"/>
</svg>
