<svg width="68" height="68" viewBox="0 0 68 68" fill="none" xmlns="http://www.w3.org/2000/svg">
<path d="M30.7963 18.798L32.0892 17.1714L30.7963 18.798ZM40.0745 26.1729L41.3674 24.5463L40.0745 26.1729ZM40.0745 42.4383L38.7816 40.8118L40.0745 42.4383ZM30.8103 49.8021L32.1032 51.4286L30.8103 49.8021ZM27.0341 56.1857L29.0822 56.5355L27.0341 56.1857ZM27.0254 12.4451L29.0725 12.0892L27.0254 12.4451ZM29.5034 20.4245L38.7816 27.7994L41.3674 24.5463L32.0892 17.1714L29.5034 20.4245ZM38.7816 40.8118L29.5174 48.1755L32.1032 51.4286L41.3674 44.0648L38.7816 40.8118ZM24.986 55.8358L24.678 57.6392L28.7742 58.3388L29.0822 56.5355L24.986 55.8358ZM29.0725 12.0892L28.7731 10.3678L24.679 11.0797L24.9783 12.8011L29.0725 12.0892ZM38.7816 27.7994C42.9678 31.1268 42.9678 37.4843 38.7816 40.8118L41.3674 44.0648C47.6466 39.0737 47.6466 29.5374 41.3674 24.5463L38.7816 27.7994ZM32.0892 17.1714C30.4949 15.9042 29.4214 14.0956 29.0725 12.0892L24.9783 12.8011C25.5017 15.8108 27.112 18.5236 29.5034 20.4245L32.0892 17.1714ZM29.5174 48.1755C27.1159 50.0844 25.5025 52.8118 24.986 55.8358L29.0822 56.5355C29.4266 54.5195 30.5021 52.7012 32.1032 51.4286L29.5174 48.1755Z" fill="#03F5A9"/>
<path d="M38.2535 49.9149L39.5464 48.2884L39.5464 48.2884L38.2535 49.9149ZM28.8391 42.4318L27.5462 44.0583L27.5462 44.0583L28.8391 42.4318ZM28.7334 26.2516L30.0474 27.8611L28.7334 26.2516ZM38.4028 18.3572L39.7168 19.9667L39.7168 19.9667L38.4028 18.3572ZM42.045 12.2166L44.0875 12.5979L44.0875 12.5979L42.045 12.2166ZM42.0244 56.2678L39.9773 56.6237L39.9773 56.6237L42.0244 56.2678ZM39.5464 48.2884L30.132 40.8052L27.5462 44.0583L36.9606 51.5415L39.5464 48.2884ZM30.0474 27.8611L39.7168 19.9667L37.0887 16.7477L27.4193 24.6421L30.0474 27.8611ZM44.0875 12.5979L44.3662 11.1052L40.2812 10.3425L40.0025 11.8352L44.0875 12.5979ZM39.9773 56.6237L40.2767 58.3451L44.3708 57.6331L44.0715 55.9118L39.9773 56.6237ZM30.132 40.8052C25.9808 37.5056 25.9396 31.2147 30.0474 27.8611L27.4193 24.6421C21.2577 29.6726 21.3194 39.1088 27.5462 44.0583L30.132 40.8052ZM36.9606 51.5415C38.5549 52.8087 39.6284 54.6173 39.9773 56.6237L44.0715 55.9118C43.5481 52.9021 41.9378 50.1893 39.5464 48.2884L36.9606 51.5415ZM39.7168 19.9667C41.9985 18.1039 43.5469 15.4934 44.0875 12.5979L40.0025 11.8352C39.6421 13.7655 38.6098 15.5059 37.0887 16.7477L39.7168 19.9667Z" fill="white"/>
<path fill-rule="evenodd" clip-rule="evenodd" d="M48.412 3.33876C45.2876 1.89336 41.583 3.2545 40.1376 6.37896C38.6922 9.50341 40.0533 13.208 43.1778 14.6534C45.7161 15.8277 47.9983 17.4904 49.8941 19.5466C51.7898 21.6029 53.262 24.0124 54.2266 26.6376C55.1911 29.2628 55.6292 32.0523 55.5157 34.8468C55.4033 37.6153 54.7517 40.335 53.5978 42.8535C53.5867 42.8767 53.5757 42.9001 53.5649 42.9235C52.3906 45.4619 50.7279 47.7441 48.6716 49.6398C46.6154 51.5356 44.2059 53.0078 41.5807 53.9723C38.9555 54.9369 36.166 55.3749 33.3715 55.2614C30.577 55.1479 27.8322 54.4851 25.2939 53.3109C22.1694 51.8655 18.4648 53.2266 17.0194 56.3511C15.574 59.4755 16.9352 63.1801 20.0596 64.6255C24.0838 66.4872 28.4353 67.5379 32.8656 67.7178C37.2959 67.8978 41.7182 67.2033 45.8802 65.6741C50.0421 64.145 53.862 61.811 57.122 58.8056C60.3576 55.8225 62.9786 52.2359 64.8378 48.2476C64.852 48.2181 64.866 48.1885 64.8798 48.1587C66.7414 44.1345 67.7922 39.783 67.9721 35.3527C68.152 30.9224 67.4576 26.5 65.9284 22.3381C64.3992 18.1762 62.0653 14.3562 59.0598 11.0963C56.0544 7.83641 52.4362 5.20038 48.412 3.33876Z" fill="url(#paint0_linear)"/>
<mask id="path-4-inside-1" fill="white">
<path fill-rule="evenodd" clip-rule="evenodd" d="M14.4021 24.8922C13.2482 27.4107 12.5967 30.1304 12.4842 32.8989C12.3707 35.6934 12.8088 38.4828 13.7733 41.108C14.7379 43.7333 16.2101 46.1428 18.1058 48.199C20.0016 50.2553 22.2838 51.918 24.8221 53.0923C27.9466 54.5377 29.3077 58.2423 27.8623 61.3667C26.4169 64.4912 22.7123 65.8523 19.5879 64.4069C15.5637 62.5453 11.9456 59.9093 8.9401 56.6493C5.93463 53.3894 3.60069 49.5695 2.07151 45.4075C0.54234 41.2456 -0.152112 36.8233 0.0278108 32.393C0.207734 27.9627 1.25851 23.6112 3.12014 19.587C3.13394 19.5572 3.14794 19.5275 3.16215 19.498C5.02135 15.5098 7.64235 11.9232 10.878 8.9401C14.1379 5.93463 17.9579 3.60068 22.1198 2.07151C26.2817 0.542339 30.704 -0.152112 35.1343 0.0278109C39.5646 0.207735 43.9161 1.25851 47.9403 3.12014C51.0648 4.56553 52.4259 8.27013 50.9805 11.3946C49.5351 14.519 45.8305 15.8802 42.7061 14.4348C40.1677 13.2605 37.4229 12.5977 34.6285 12.4842C31.834 12.3707 29.0445 12.8088 26.4193 13.7733C23.7941 14.7379 21.3845 16.2101 19.3283 18.1058C17.272 20.0016 15.6093 22.2838 14.4351 24.8221C14.4242 24.8456 14.4132 24.869 14.4021 24.8922Z"/>
</mask>
<path d="M14.4021 24.8922L3.15194 19.5208L3.10943 19.6098L3.06834 19.6995L14.4021 24.8922ZM12.4842 32.8989L24.9407 33.4048V33.4047L12.4842 32.8989ZM13.7733 41.108L25.4752 36.8085L25.4752 36.8085L13.7733 41.108ZM24.8221 53.0923L19.5879 64.4069H19.5879L24.8221 53.0923ZM27.8623 61.3667L39.177 66.601L27.8623 61.3667ZM19.5879 64.4069L24.8221 53.0923L24.8221 53.0923L19.5879 64.4069ZM8.9401 56.6493L-0.225638 65.0996L-0.225634 65.0997L8.9401 56.6493ZM2.07151 45.4075L13.7733 41.1081L13.7733 41.108L2.07151 45.4075ZM0.0278108 32.393L12.4842 32.8989L0.0278108 32.393ZM3.12014 19.587L14.4348 24.8212L14.4348 24.8212L3.12014 19.587ZM3.16215 19.498L14.3945 24.9066L14.4284 24.8362L14.4614 24.7654L3.16215 19.498ZM10.878 8.9401L19.3283 18.1058L19.3283 18.1058L10.878 8.9401ZM22.1198 2.07151L26.4193 13.7733H26.4193L22.1198 2.07151ZM35.1343 0.0278109L35.6402 -12.4286H35.6402L35.1343 0.0278109ZM47.9403 3.12014L42.7061 14.4348L47.9403 3.12014ZM42.7061 14.4348L37.4718 25.7494H37.4718L42.7061 14.4348ZM34.6285 12.4842L34.1226 24.9407H34.1226L34.6285 12.4842ZM26.4193 13.7733L30.7188 25.4752L26.4193 13.7733ZM19.3283 18.1058L10.878 8.9401L10.878 8.9401L19.3283 18.1058ZM14.4351 24.8221L25.7495 30.0567L25.7497 30.0564L14.4351 24.8221ZM3.06834 19.6995C1.23902 23.6923 0.20606 28.0039 0.0278127 32.393L24.9407 33.4047C24.9873 32.2569 25.2574 31.1292 25.7359 30.0849L3.06834 19.6995ZM0.0278132 32.393C-0.152114 36.8233 0.542338 41.2456 2.07151 45.4075L25.4752 36.8085C25.0752 35.72 24.8936 34.5634 24.9407 33.4048L0.0278132 32.393ZM2.07151 45.4075C3.60068 49.5695 5.93463 53.3894 8.9401 56.6493L27.2716 39.7487C26.4855 38.8961 25.8751 37.8971 25.4752 36.8085L2.07151 45.4075ZM8.9401 56.6493C11.9456 59.9093 15.5637 62.5453 19.5879 64.4069L30.0564 41.7776C29.0039 41.2907 28.0576 40.6013 27.2716 39.7487L8.9401 56.6493ZM19.5879 64.4069C16.4634 62.9615 15.1023 59.2569 16.5477 56.1325L39.177 66.601C43.5132 57.2276 39.4297 46.1138 30.0564 41.7776L19.5879 64.4069ZM16.5477 56.1325C17.9931 53.008 21.6977 51.6469 24.8221 53.0923L14.3537 75.7215C23.727 80.0577 34.8408 75.9743 39.177 66.601L16.5477 56.1325ZM24.8221 53.0923C22.2838 51.918 20.0016 50.2553 18.1058 48.199L-0.225634 65.0997C3.88954 69.5632 8.84359 73.1726 14.3537 75.7216L24.8221 53.0923ZM18.1058 48.199C16.2101 46.1428 14.7379 43.7333 13.7733 41.1081L-9.63032 49.707C-7.53653 55.4057 -4.34082 60.6361 -0.225638 65.0996L18.1058 48.199ZM13.7733 41.108C12.8088 38.4828 12.3707 35.6934 12.4842 32.8989L-12.4286 31.8871C-12.675 37.9532 -11.7241 44.0084 -9.63032 49.707L13.7733 41.108ZM12.4842 32.8989C12.5977 30.1044 13.2605 27.3596 14.4348 24.8212L-8.19451 14.3528C-10.7435 19.8628 -12.1823 25.821 -12.4286 31.8871L12.4842 32.8989ZM14.4348 24.8212C14.4216 24.8498 14.4081 24.8783 14.3945 24.9066L-8.0702 14.0894C-8.11224 14.1767 -8.15369 14.2645 -8.19454 14.3528L14.4348 24.8212ZM14.4614 24.7654C15.6341 22.2498 17.2874 19.9875 19.3283 18.1058L2.42767 -0.225638C-2.00265 3.85888 -5.59141 8.7698 -8.13708 14.2306L14.4614 24.7654ZM19.3283 18.1058C21.3845 16.2101 23.7941 14.7379 26.4193 13.7733L17.8203 -9.63032C12.1217 -7.53653 6.89125 -4.34082 2.42766 -0.225636L19.3283 18.1058ZM26.4193 13.7733C29.0445 12.8088 31.834 12.3707 34.6285 12.4842L35.6402 -12.4286C29.5741 -12.675 23.5189 -11.7241 17.8203 -9.63032L26.4193 13.7733ZM34.6285 12.4842C37.4229 12.5977 40.1677 13.2605 42.7061 14.4348L53.1746 -8.19451C47.6645 -10.7435 41.7063 -12.1823 35.6402 -12.4286L34.6285 12.4842ZM42.7061 14.4348C39.5816 12.9894 38.2205 9.28478 39.6659 6.16034L62.2952 16.6288C66.6313 7.25548 62.5479 -3.85832 53.1746 -8.19451L42.7061 14.4348ZM39.6659 6.16034C41.1113 3.03589 44.8159 1.67474 47.9403 3.12014L37.4718 25.7494C46.8452 30.0856 57.959 26.0022 62.2952 16.6288L39.6659 6.16034ZM47.9403 3.12014C43.9161 1.25851 39.5646 0.207737 35.1343 0.0278132L34.1226 24.9407C35.2813 24.9877 36.4193 25.2625 37.4718 25.7494L47.9403 3.12014ZM35.1343 0.0278136C30.704 -0.152113 26.2817 0.54234 22.1198 2.07151L30.7188 25.4752C31.8073 25.0752 32.9639 24.8936 34.1226 24.9407L35.1343 0.0278136ZM22.1198 2.07151C17.9579 3.60069 14.1379 5.93463 10.878 8.9401L27.7786 27.2716C28.6312 26.4855 29.6303 25.8751 30.7188 25.4752L22.1198 2.07151ZM10.878 8.9401C7.61806 11.9456 4.98204 15.5637 3.12041 19.5879L25.7497 30.0564C26.2366 29.0039 26.926 28.0576 27.7786 27.2716L10.878 8.9401ZM3.12055 19.5876C3.13075 19.5655 3.14121 19.5433 3.15194 19.5208L25.6523 30.2636C25.6852 30.1947 25.7176 30.1257 25.7495 30.0567L3.12055 19.5876Z" fill="url(#paint1_linear)" mask="url(#path-4-inside-1)"/>
<defs>
<linearGradient id="paint0_linear" x1="67.8722" y1="28.569" x2="47.8542" y2="54.1236" gradientUnits="userSpaceOnUse">
<stop stop-color="#654CF0"/>
<stop offset="1" stop-color="#03F5A9"/>
</linearGradient>
<linearGradient id="paint1_linear" x1="6.46976" y1="55.3956" x2="32.4798" y2="12.6612" gradientUnits="userSpaceOnUse">
<stop stop-color="#654CF0"/>
<stop offset="1" stop-color="white"/>
</linearGradient>
</defs>
</svg>
