<svg width="78" height="73" viewBox="0 0 78 73" fill="none" xmlns="http://www.w3.org/2000/svg">
<circle opacity="0.9" cx="34.276" cy="38.276" r="34.276" fill="#F1F0F8"/>
<circle cx="60.69" cy="17.138" r="17.138" fill="#03F5A9"/>
<path d="M59.9342 24.8831C57.0734 24.884 54.6313 26.7097 53.7102 29.2574H51.1326C50.7435 26.4537 49.6382 23.8767 48.0048 21.719L49.8341 19.8894C50.7038 20.2988 51.6569 20.5219 52.6464 20.5219C54.4139 20.5219 56.0754 19.8338 57.3249 18.584C58.5749 17.3343 59.2634 15.6727 59.2634 13.9053C59.2634 12.1378 58.5749 10.4763 57.3252 9.22622C56.0754 7.97645 54.4139 7.28832 52.6464 7.28832C50.879 7.28832 49.2174 7.97645 47.9674 9.22651C45.9455 11.249 45.5163 14.2629 46.6644 16.7152L44.8324 18.5469C42.6744 16.9138 40.0977 15.8085 37.294 15.4194V12.8409C39.8414 11.9198 41.6674 9.47772 41.668 6.61664C41.6677 2.96814 38.6996 0 35.0517 0C31.4032 0 28.4348 2.96844 28.4348 6.61694C28.4348 8.38437 29.1226 10.0459 30.3727 11.2957C31.0724 11.9955 31.9044 12.5117 32.8085 12.8373V15.4197C30.0051 15.8091 27.4281 16.9141 25.2704 18.5475L23.4384 16.7152C24.5865 14.2632 24.157 11.249 22.1354 9.22622C20.8857 7.97645 19.2238 7.28832 17.4567 7.28832C15.6892 7.28832 14.0277 7.97645 12.7779 9.22651C10.1983 11.8065 10.1985 16.0043 12.7779 18.5837C14.0277 19.8338 15.6892 20.5219 17.4567 20.5219C18.4462 20.5219 19.3993 20.2988 20.269 19.8894L22.0989 21.7193C20.4658 23.8773 19.3605 26.454 18.9714 29.2571L16.3932 29.2574C15.4721 26.7097 13.03 24.8837 10.1677 24.8837C8.40032 24.8837 6.73876 25.5721 5.489 26.8221C4.23924 28.0722 3.5514 29.7341 3.552 31.5C3.5514 35.1479 6.51925 38.1166 10.1677 38.1175C10.168 38.1175 10.168 38.1175 10.1683 38.1175C13.0294 38.1175 15.4718 36.2915 16.3929 33.7435L18.9714 33.7432C19.3605 36.5466 20.4655 39.1236 22.0989 41.2813L20.269 43.1115C19.3993 42.7021 18.4462 42.479 17.4567 42.479C15.6892 42.479 14.0277 43.1671 12.7779 44.4169C11.5282 45.6666 10.84 47.3282 10.84 49.0959C10.84 50.864 11.5285 52.5255 12.7776 53.7738C14.0274 55.0238 15.6889 55.7123 17.4567 55.7123C19.2241 55.7123 20.8857 55.0241 22.1354 53.7744C24.1579 51.7522 24.5874 48.738 23.4387 46.2854L25.271 44.4528C27.4287 46.0862 30.0057 47.1912 32.8091 47.5803V50.1588C30.2614 51.0796 28.4354 53.522 28.4354 56.3831C28.4354 58.1508 29.1235 59.8123 30.3729 61.0621C31.6227 62.3119 33.2843 63 35.0511 63C35.0514 63 35.0535 63 35.0538 63C36.8206 63 38.4819 62.3116 39.7317 61.0615C40.9811 59.8117 41.6689 58.1502 41.6686 56.3831C41.6686 53.5226 39.8429 51.0805 37.2949 50.1594V47.5806C40.0983 47.1915 42.6753 46.0868 44.8333 44.4534L46.665 46.2854C45.5166 48.7377 45.9458 51.7516 47.9683 53.7738C49.2183 55.0238 50.8799 55.712 52.6473 55.712C54.4148 55.712 56.0763 55.0235 57.3252 53.7744C58.5755 52.5249 59.2643 50.8634 59.2643 49.0953C59.2643 47.3276 58.5758 45.666 57.3261 44.4163C56.0766 43.1668 54.4154 42.4784 52.6479 42.4784C51.6584 42.4784 50.705 42.7015 49.8353 43.1109L48.0057 41.281C49.6391 39.1233 50.7444 36.546 51.1335 33.7426H53.7108C54.6316 36.2903 57.0737 38.116 59.9342 38.116H59.9351C63.5836 38.116 66.552 35.1479 66.552 31.4994C66.5514 27.8518 63.5833 24.8837 59.9342 24.8831ZM43.402 39.7618C43.3867 39.7761 43.3703 39.789 43.3553 39.8039C43.3404 39.8189 43.3278 39.835 43.3132 39.8503C41.2174 41.9236 38.3482 43.215 35.1821 43.2497C35.1384 43.2473 35.0954 43.2431 35.0511 43.2431C35.0068 43.2431 34.9638 43.2473 34.9201 43.2497C28.5203 43.1791 23.3325 37.9698 23.2993 31.5616C23.2999 31.541 23.3023 31.5206 23.3023 31.4997C23.3023 31.4791 23.2999 31.459 23.2993 31.4381C23.3328 25.0066 28.5577 19.7814 34.9895 19.7482C35.0101 19.7488 35.0302 19.7512 35.0511 19.7512C35.072 19.7512 35.0921 19.7485 35.113 19.7479C38.306 19.7647 41.2015 21.0605 43.3123 23.1488C43.3269 23.1644 43.3398 23.1808 43.355 23.1961C43.3703 23.2113 43.387 23.2242 43.4026 23.2391C45.4732 25.3322 46.7637 28.1966 46.8014 31.3573C46.7984 31.4046 46.7942 31.4516 46.7942 31.5C46.7942 31.5481 46.7984 31.5951 46.8014 31.6426C46.7637 34.804 45.4732 37.669 43.402 39.7618ZM51.1395 12.3983C51.5423 11.9958 52.0773 11.7742 52.6467 11.7742C53.2158 11.7742 53.7509 11.9958 54.1534 12.3983C54.5559 12.8011 54.7778 13.3362 54.7778 13.9053C54.7778 14.4741 54.5562 15.0091 54.1534 15.4122C53.7509 15.8147 53.2161 16.036 52.6467 16.036C52.0776 16.036 51.5423 15.8144 51.1398 15.4122C50.309 14.5811 50.309 13.2291 51.1395 12.3983ZM35.0517 4.48586C36.2264 4.48586 37.1822 5.44195 37.1825 6.61634C37.1822 7.79134 36.2261 8.74713 35.0511 8.74772C34.482 8.74772 33.947 8.52612 33.5445 8.12359C33.1422 7.72136 32.9206 7.18635 32.9206 6.61724C32.9206 5.44195 33.8764 4.48586 35.0517 4.48586ZM15.9494 15.4119C15.1186 14.5811 15.1186 13.2291 15.9494 12.398C16.352 11.9955 16.8867 11.7742 17.4561 11.7742C18.0252 11.7742 18.5605 11.9958 18.9627 12.3977C19.7935 13.2288 19.7935 14.5811 18.9633 15.4116C18.5605 15.8141 18.0255 16.0357 17.4561 16.0357C16.887 16.036 16.352 15.8144 15.9494 15.4119ZM10.1683 33.6314C8.99305 33.6308 8.03726 32.6753 8.03756 31.4994C8.03726 30.9309 8.25886 30.3962 8.6611 29.9936C9.06363 29.5911 9.59834 29.3695 10.1695 29.3695C11.3436 29.3695 12.2991 30.3256 12.2994 31.5C12.2988 32.6753 11.343 33.6314 10.1683 33.6314ZM18.9633 50.602C18.5605 51.0045 18.0255 51.2261 17.4561 51.2261C16.887 51.2261 16.3523 51.0045 15.9488 50.6011C15.5466 50.1992 15.3253 49.6644 15.3253 49.0953C15.3253 48.5259 15.5469 47.9909 15.9494 47.5881C16.352 47.1856 16.8867 46.9639 17.4561 46.9639C18.0252 46.9639 18.5605 47.1856 18.9627 47.5878C19.7938 48.4195 19.7941 49.7715 18.9633 50.602ZM36.5581 57.89C36.1558 58.2925 35.6214 58.5141 35.0526 58.5141V60.7571L35.0505 58.5141C33.8758 58.5141 32.9203 57.5581 32.9203 56.3831C32.9203 55.2084 33.8761 54.2526 35.0505 54.2526C36.2258 54.2529 37.1819 55.2087 37.1819 56.3834C37.1822 56.9525 36.9606 57.4875 36.5581 57.89ZM54.1534 47.5887C54.5559 47.9912 54.7775 48.5265 54.7775 49.0956C54.7775 49.6644 54.5559 50.1992 54.1531 50.602C53.7506 51.0045 53.2155 51.2261 52.6464 51.2261C52.0773 51.2261 51.5423 51.0042 51.1395 50.6017C50.3087 49.7709 50.309 48.4192 51.1389 47.589C51.542 47.1861 52.0776 46.9646 52.647 46.9646C53.2158 46.9646 53.7509 47.1864 54.1534 47.5887ZM59.9339 33.6308L59.9336 35.8737V33.6308C58.7595 33.6308 57.804 32.675 57.8037 31.5006C57.8037 30.3256 58.7601 29.3692 59.9345 29.3689C61.1095 29.3689 62.0655 30.325 62.0655 31.5C62.0655 32.675 61.1095 33.6308 59.9339 33.6308Z" fill="#654CF0"/>
<path d="M35.0516 30.2243C36.3802 30.2243 37.4572 29.1473 37.4572 27.8187C37.4572 26.4901 36.3802 25.4131 35.0516 25.4131C33.723 25.4131 32.646 26.4901 32.646 27.8187C32.646 29.1473 33.723 30.2243 35.0516 30.2243Z" fill="#654CF0"/>
<path d="M31.4908 36.3914C32.8192 36.3914 33.8961 35.3145 33.8961 33.9861C33.8961 32.6577 32.8192 31.5808 31.4908 31.5808C30.1623 31.5808 29.0854 32.6577 29.0854 33.9861C29.0854 35.3145 30.1623 36.3914 31.4908 36.3914Z" fill="#654CF0"/>
<path d="M38.6128 36.3914C39.9413 36.3914 41.0182 35.3145 41.0182 33.9861C41.0182 32.6577 39.9413 31.5808 38.6128 31.5808C37.2844 31.5808 36.2075 32.6577 36.2075 33.9861C36.2075 35.3145 37.2844 36.3914 38.6128 36.3914Z" fill="#654CF0"/>
</svg>
