<svg width="26" height="17" viewBox="0 0 26 17" fill="none" xmlns="http://www.w3.org/2000/svg">
<path fill-rule="evenodd" clip-rule="evenodd" d="M12.9158 6.77682H15.7139C15.7761 7.18098 15.8072 7.59291 15.7994 8.01262C15.7994 10.8884 14.6102 13.4144 12.3329 14.8212C11.1127 15.5751 9.66702 16.0103 8.1281 16.0103C3.71341 16.0103 0.130371 12.4273 0.130371 8.01262C0.130371 3.59794 3.71341 0.0148926 8.1281 0.0148926C10.1567 0.0148926 12.0143 0.776581 13.4211 2.02015L11.307 4.24304C10.452 3.51244 9.34058 3.07719 8.1281 3.07719C5.40778 3.07719 3.19267 5.28453 3.19267 8.01262C3.19267 10.7329 5.40001 12.948 8.1281 12.948C9.65925 12.948 11.0272 12.2485 11.9365 11.1526C12.263 10.764 12.4495 10.3443 12.4573 9.83912H8.13587V6.77682H12.9081V6.76905L12.9158 6.77682ZM22.725 6.58252H25.9427V8.751H22.725V11.9765H20.5487V8.751H17.331V6.58252H20.5487V3.36478H22.725V6.58252Z" fill="#03F5A9"/>
</svg>
