<svg width="30" height="31" viewBox="0 0 30 31" fill="none" xmlns="http://www.w3.org/2000/svg">
<path d="M25.92 9.01489C25.15 9.36489 24.32 9.59489 23.46 9.70489C24.34 9.17489 25.02 8.33489 25.34 7.32489C24.51 7.82489 23.59 8.17489 22.62 8.37489C21.83 7.51489 20.72 7.01489 19.46 7.01489C17.11 7.01489 15.19 8.93489 15.19 11.3049C15.19 11.6449 15.23 11.9749 15.3 12.2849C11.74 12.1049 8.57 10.3949 6.46 7.80489C6.09 8.43489 5.88 9.17489 5.88 9.95489C5.88 11.4449 6.63 12.7649 7.79 13.5149C7.08 13.5149 6.42 13.3149 5.84 13.0149C5.84 13.0149 5.84 13.0149 5.84 13.0449C5.84 15.1249 7.32 16.8649 9.28 17.2549C8.92 17.3549 8.54 17.4049 8.15 17.4049C7.88 17.4049 7.61 17.3749 7.35 17.3249C7.89 19.0149 9.46 20.2749 11.35 20.3049C9.89 21.4649 8.04 22.1449 6.02 22.1449C5.68 22.1449 5.34 22.1249 5 22.0849C6.9 23.3049 9.16 24.0149 11.58 24.0149C19.46 24.0149 23.79 17.4749 23.79 11.8049C23.79 11.6149 23.79 11.4349 23.78 11.2449C24.62 10.6449 25.34 9.88489 25.92 9.01489Z" fill="#03F5A9"/>
</svg>
