<svg width="23" height="23" viewBox="0 0 23 23" fill="none" xmlns="http://www.w3.org/2000/svg">
<path d="M11.3166 0.0148926C5.24702 0.0148926 0.326537 4.93537 0.326537 11.0055C0.326537 14.0179 1.92166 16.7105 1.92166 16.7105L0 22.5631L6.02215 20.6389C6.02215 20.6389 8.25783 21.9961 11.3172 21.9961C17.3873 21.9961 22.3078 17.0757 22.3078 11.0055C22.3073 4.93537 17.3868 0.0148926 11.3166 0.0148926ZM11.3166 20.2372C8.491 20.2372 6.22871 18.7099 6.22871 18.7099L2.75731 19.8424L3.88349 16.4815C3.88349 16.4815 2.08441 13.9908 2.08441 11.005C2.08441 5.90612 6.21776 1.77329 11.3161 1.77329C16.415 1.77329 20.5483 5.90664 20.5483 11.005C20.5489 16.1039 16.4155 20.2372 11.3166 20.2372Z" fill="#03F5A9"/>
<path d="M7.13136 6.22078C7.13136 6.22078 7.42816 6.03247 7.58308 6.03247C7.73801 6.03247 8.44898 6.03247 8.44898 6.03247C8.44898 6.03247 8.6811 6.07316 8.78803 6.31467C8.89445 6.5567 9.62472 8.2718 9.67897 8.4043C9.73322 8.53679 9.8751 8.86385 9.64767 9.157C9.42024 9.45015 8.94504 9.99786 8.94504 9.99786C8.94504 9.99786 8.75674 10.1674 8.92001 10.4371C9.08327 10.7067 9.65654 11.5966 10.4072 12.269C11.1573 12.9414 12.0764 13.4359 12.5343 13.5866C12.9923 13.7374 13.093 13.5366 13.2683 13.3107C13.4441 13.0848 13.9897 12.3947 13.9897 12.3947C13.9897 12.3947 14.178 12.1188 14.5483 12.2883C14.9187 12.4578 16.7193 13.33 16.7193 13.33C16.7193 13.33 16.9389 13.3676 16.9515 13.6122C16.964 13.8568 17.1147 14.5892 16.4622 15.2934C15.8096 15.9981 14.4216 16.3241 13.7643 16.14C13.1071 15.9564 10.9345 15.3878 9.51727 14.0665C8.10001 12.7453 6.95244 11.3541 6.48298 10.328C6.01352 9.30201 6.0396 8.6938 6.06568 8.4069C6.09176 8.12001 6.24199 6.79039 7.13136 6.22078Z" fill="#03F5A9"/>
</svg>
