<svg width="566" height="512" viewBox="0 0 566 512" fill="none" xmlns="http://www.w3.org/2000/svg">
<path d="M0 40C0 17.9086 17.9086 0 40 0H526C548.091 0 566 17.9086 566 40V472C566 494.091 548.091 512 526 512H40C17.9086 512 0 494.091 0 472V40Z" fill="#654CF0"/>
<mask id="mask0" mask-type="alpha" maskUnits="userSpaceOnUse" x="0" y="0" width="566" height="512">
<path d="M0 40C0 17.9086 17.9086 0 40 0H526C548.091 0 566 17.9086 566 40V472C566 494.091 548.091 512 526 512H40C17.9086 512 0 494.091 0 472V40Z" fill="#654CF0"/>
</mask>
<g mask="url(#mask0)">
<path d="M-494.823 808.45C-683.129 900.92 -783.264 689.423 -831.313 599.903C-879.362 510.384 -904.472 424.309 -814.566 268.784C-659.623 0.757479 -658.284 16.5194 -672.037 -230.032C-685.791 -476.584 -438.305 -480.667 -353.727 -464.633C-234.247 -441.983 -181.404 -244.539 9.10166 -310.521C199.607 -376.502 263.501 -244.5 290.5 -97C317.5 50.5 219.354 122.825 186.162 218.16C123.599 397.856 205.559 574.741 44.3409 690.111C-95.4113 790.119 -290.946 618.241 -494.823 808.45Z" fill="#513CC5"/>
</g>
</svg>
