<svg width="1440" height="867" viewBox="0 0 1440 867" fill="none" xmlns="http://www.w3.org/2000/svg">
<rect width="1440" height="867" fill="#513CC5"/>
<path d="M-26.4141 1012.72C-205.668 1100.74 -300.989 899.411 -346.728 814.195C-392.468 728.978 -416.371 647.041 -330.786 498.993C-183.292 243.85 -182.017 258.855 -195.11 24.1552C-208.202 -210.544 27.3872 -214.431 107.899 -199.168C221.636 -177.607 271.939 10.3455 453.286 -52.464C634.634 -115.274 717.719 6.3381 730.007 149.687C742.295 293.036 653.431 360.051 621.835 450.803C562.279 621.86 640.3 790.242 486.832 900.066C353.798 995.266 167.662 831.651 -26.4141 1012.72Z" fill="#654CF0"/>
<path fill-rule="evenodd" clip-rule="evenodd" d="M1199.48 574.303C1199.48 576.68 1197.56 578.606 1195.18 578.606C1192.81 578.606 1190.88 576.68 1190.88 574.303C1190.88 571.927 1192.81 570 1195.18 570C1197.56 570 1199.48 571.927 1199.48 574.303ZM1154.3 578.606C1156.68 578.606 1158.61 576.68 1158.61 574.303C1158.61 571.927 1156.68 570 1154.3 570C1151.93 570 1150 571.927 1150 574.303C1150 576.68 1151.93 578.606 1154.3 578.606ZM1154.3 619.485C1156.68 619.485 1158.61 617.558 1158.61 615.182C1158.61 612.805 1156.68 610.879 1154.3 610.879C1151.93 610.879 1150 612.805 1150 615.182C1150 617.558 1151.93 619.485 1154.3 619.485ZM1158.61 656.061C1158.61 658.437 1156.68 660.364 1154.3 660.364C1151.93 660.364 1150 658.437 1150 656.061C1150 653.684 1151.93 651.758 1154.3 651.758C1156.68 651.758 1158.61 653.684 1158.61 656.061ZM1154.3 701.242C1156.68 701.242 1158.61 699.316 1158.61 696.939C1158.61 694.563 1156.68 692.636 1154.3 692.636C1151.93 692.636 1150 694.563 1150 696.939C1150 699.316 1151.93 701.242 1154.3 701.242ZM1158.61 737.818C1158.61 740.195 1156.68 742.121 1154.3 742.121C1151.93 742.121 1150 740.195 1150 737.818C1150 735.442 1151.93 733.515 1154.3 733.515C1156.68 733.515 1158.61 735.442 1158.61 737.818ZM1154.3 783C1156.68 783 1158.61 781.073 1158.61 778.697C1158.61 776.32 1156.68 774.394 1154.3 774.394C1151.93 774.394 1150 776.32 1150 778.697C1150 781.073 1151.93 783 1154.3 783ZM1195.18 619.485C1197.56 619.485 1199.48 617.558 1199.48 615.182C1199.48 612.805 1197.56 610.879 1195.18 610.879C1192.81 610.879 1190.88 612.805 1190.88 615.182C1190.88 617.558 1192.81 619.485 1195.18 619.485ZM1199.48 656.061C1199.48 658.437 1197.56 660.364 1195.18 660.364C1192.81 660.364 1190.88 658.437 1190.88 656.061C1190.88 653.684 1192.81 651.758 1195.18 651.758C1197.56 651.758 1199.48 653.684 1199.48 656.061ZM1236.06 660.364C1238.44 660.364 1240.36 658.437 1240.36 656.061C1240.36 653.684 1238.44 651.758 1236.06 651.758C1233.68 651.758 1231.76 653.684 1231.76 656.061C1231.76 658.437 1233.68 660.364 1236.06 660.364ZM1281.24 656.061C1281.24 658.437 1279.32 660.364 1276.94 660.364C1274.56 660.364 1272.64 658.437 1272.64 656.061C1272.64 653.684 1274.56 651.758 1276.94 651.758C1279.32 651.758 1281.24 653.684 1281.24 656.061ZM1317.82 660.364C1320.19 660.364 1322.12 658.437 1322.12 656.061C1322.12 653.684 1320.19 651.758 1317.82 651.758C1315.44 651.758 1313.52 653.684 1313.52 656.061C1313.52 658.437 1315.44 660.364 1317.82 660.364ZM1363 656.061C1363 658.437 1361.07 660.364 1358.7 660.364C1356.32 660.364 1354.39 658.437 1354.39 656.061C1354.39 653.684 1356.32 651.758 1358.7 651.758C1361.07 651.758 1363 653.684 1363 656.061ZM1195.18 701.242C1197.56 701.242 1199.48 699.316 1199.48 696.939C1199.48 694.563 1197.56 692.636 1195.18 692.636C1192.81 692.636 1190.88 694.563 1190.88 696.939C1190.88 699.316 1192.81 701.242 1195.18 701.242ZM1199.48 737.818C1199.48 740.195 1197.56 742.121 1195.18 742.121C1192.81 742.121 1190.88 740.195 1190.88 737.818C1190.88 735.442 1192.81 733.515 1195.18 733.515C1197.56 733.515 1199.48 735.442 1199.48 737.818ZM1195.18 783C1197.56 783 1199.48 781.073 1199.48 778.697C1199.48 776.32 1197.56 774.394 1195.18 774.394C1192.81 774.394 1190.88 776.32 1190.88 778.697C1190.88 781.073 1192.81 783 1195.18 783ZM1240.36 574.303C1240.36 576.68 1238.44 578.606 1236.06 578.606C1233.68 578.606 1231.76 576.68 1231.76 574.303C1231.76 571.927 1233.68 570 1236.06 570C1238.44 570 1240.36 571.927 1240.36 574.303ZM1236.06 619.485C1238.44 619.485 1240.36 617.558 1240.36 615.182C1240.36 612.805 1238.44 610.879 1236.06 610.879C1233.68 610.879 1231.76 612.805 1231.76 615.182C1231.76 617.558 1233.68 619.485 1236.06 619.485ZM1240.36 696.939C1240.36 699.316 1238.44 701.242 1236.06 701.242C1233.68 701.242 1231.76 699.316 1231.76 696.939C1231.76 694.563 1233.68 692.636 1236.06 692.636C1238.44 692.636 1240.36 694.563 1240.36 696.939ZM1236.06 742.121C1238.44 742.121 1240.36 740.195 1240.36 737.818C1240.36 735.442 1238.44 733.515 1236.06 733.515C1233.68 733.515 1231.76 735.442 1231.76 737.818C1231.76 740.195 1233.68 742.121 1236.06 742.121ZM1240.36 778.697C1240.36 781.073 1238.44 783 1236.06 783C1233.68 783 1231.76 781.073 1231.76 778.697C1231.76 776.32 1233.68 774.394 1236.06 774.394C1238.44 774.394 1240.36 776.32 1240.36 778.697ZM1276.94 578.606C1279.32 578.606 1281.24 576.68 1281.24 574.303C1281.24 571.927 1279.32 570 1276.94 570C1274.56 570 1272.64 571.927 1272.64 574.303C1272.64 576.68 1274.56 578.606 1276.94 578.606ZM1281.24 615.182C1281.24 617.558 1279.32 619.485 1276.94 619.485C1274.56 619.485 1272.64 617.558 1272.64 615.182C1272.64 612.805 1274.56 610.879 1276.94 610.879C1279.32 610.879 1281.24 612.805 1281.24 615.182ZM1276.94 701.242C1279.32 701.242 1281.24 699.316 1281.24 696.939C1281.24 694.563 1279.32 692.636 1276.94 692.636C1274.56 692.636 1272.64 694.563 1272.64 696.939C1272.64 699.316 1274.56 701.242 1276.94 701.242ZM1281.24 737.818C1281.24 740.195 1279.32 742.121 1276.94 742.121C1274.56 742.121 1272.64 740.195 1272.64 737.818C1272.64 735.442 1274.56 733.515 1276.94 733.515C1279.32 733.515 1281.24 735.442 1281.24 737.818ZM1276.94 783C1279.32 783 1281.24 781.073 1281.24 778.697C1281.24 776.32 1279.32 774.394 1276.94 774.394C1274.56 774.394 1272.64 776.32 1272.64 778.697C1272.64 781.073 1274.56 783 1276.94 783ZM1322.12 574.303C1322.12 576.68 1320.19 578.606 1317.82 578.606C1315.44 578.606 1313.52 576.68 1313.52 574.303C1313.52 571.927 1315.44 570 1317.82 570C1320.19 570 1322.12 571.927 1322.12 574.303ZM1317.82 619.485C1320.19 619.485 1322.12 617.558 1322.12 615.182C1322.12 612.805 1320.19 610.879 1317.82 610.879C1315.44 610.879 1313.52 612.805 1313.52 615.182C1313.52 617.558 1315.44 619.485 1317.82 619.485ZM1322.12 696.939C1322.12 699.316 1320.19 701.242 1317.82 701.242C1315.44 701.242 1313.52 699.316 1313.52 696.939C1313.52 694.563 1315.44 692.636 1317.82 692.636C1320.19 692.636 1322.12 694.563 1322.12 696.939ZM1317.82 742.121C1320.19 742.121 1322.12 740.195 1322.12 737.818C1322.12 735.442 1320.19 733.515 1317.82 733.515C1315.44 733.515 1313.52 735.442 1313.52 737.818C1313.52 740.195 1315.44 742.121 1317.82 742.121ZM1322.12 778.697C1322.12 781.073 1320.19 783 1317.82 783C1315.44 783 1313.52 781.073 1313.52 778.697C1313.52 776.32 1315.44 774.394 1317.82 774.394C1320.19 774.394 1322.12 776.32 1322.12 778.697ZM1358.7 578.606C1361.07 578.606 1363 576.68 1363 574.303C1363 571.927 1361.07 570 1358.7 570C1356.32 570 1354.39 571.927 1354.39 574.303C1354.39 576.68 1356.32 578.606 1358.7 578.606ZM1363 615.182C1363 617.558 1361.07 619.485 1358.7 619.485C1356.32 619.485 1354.39 617.558 1354.39 615.182C1354.39 612.805 1356.32 610.879 1358.7 610.879C1361.07 610.879 1363 612.805 1363 615.182ZM1358.7 701.242C1361.07 701.242 1363 699.316 1363 696.939C1363 694.563 1361.07 692.636 1358.7 692.636C1356.32 692.636 1354.39 694.563 1354.39 696.939C1354.39 699.316 1356.32 701.242 1358.7 701.242ZM1363 737.818C1363 740.195 1361.07 742.121 1358.7 742.121C1356.32 742.121 1354.39 740.195 1354.39 737.818C1354.39 735.442 1356.32 733.515 1358.7 733.515C1361.07 733.515 1363 735.442 1363 737.818ZM1358.7 783C1361.07 783 1363 781.073 1363 778.697C1363 776.32 1361.07 774.394 1358.7 774.394C1356.32 774.394 1354.39 776.32 1354.39 778.697C1354.39 781.073 1356.32 783 1358.7 783Z" fill="url(#paint0_linear)"/>
<circle opacity="0.3" cx="1246" cy="345" r="27" fill="#654CF0"/>
<circle cx="1246" cy="345" r="8.96027" fill="#654CF0"/>
<circle opacity="0.3" cy="630" r="66" fill="#B2A5F7"/>
<circle cx="0.000770569" cy="630" r="21.9029" fill="#B2A5F7"/>
<defs>
<linearGradient id="paint0_linear" x1="1256.5" y1="570" x2="1256.5" y2="783" gradientUnits="userSpaceOnUse">
<stop stop-color="#E0DDF7"/>
<stop offset="1" stop-color="#E0DDF7" stop-opacity="0"/>
</linearGradient>
</defs>
</svg>
