<svg width="1440" height="867" viewBox="0 0 1440 867" fill="none" xmlns="http://www.w3.org/2000/svg">
<rect width="1440" height="867" fill="white"/>
<path d="M129.226 904.932C-25.4582 1031.24 -163.867 856.701 -227.703 784.046C-291.54 711.391 -333.365 636.988 -283.503 473.413C-197.572 191.512 -192.935 205.839 -258.799 -19.8096C-324.663 -245.458 -96.0642 -302.556 -14.1868 -305.909C101.478 -310.645 193.009 -138.951 355.439 -241.169C517.869 -343.387 626.319 -243.732 670.727 -106.882C715.135 29.9677 643.741 115.353 633.501 210.901C614.2 390.998 728.301 537.357 603.666 679.06C495.626 801.896 277.294 684.646 129.226 904.932Z" fill="#F8F8FB"/>
<path fill-rule="evenodd" clip-rule="evenodd" d="M1199.48 570.303C1199.48 572.68 1197.56 574.606 1195.18 574.606C1192.81 574.606 1190.88 572.68 1190.88 570.303C1190.88 567.927 1192.81 566 1195.18 566C1197.56 566 1199.48 567.927 1199.48 570.303ZM1154.3 574.606C1156.68 574.606 1158.61 572.68 1158.61 570.303C1158.61 567.927 1156.68 566 1154.3 566C1151.93 566 1150 567.927 1150 570.303C1150 572.68 1151.93 574.606 1154.3 574.606ZM1154.3 615.485C1156.68 615.485 1158.61 613.558 1158.61 611.182C1158.61 608.805 1156.68 606.879 1154.3 606.879C1151.93 606.879 1150 608.805 1150 611.182C1150 613.558 1151.93 615.485 1154.3 615.485ZM1158.61 652.061C1158.61 654.437 1156.68 656.364 1154.3 656.364C1151.93 656.364 1150 654.437 1150 652.061C1150 649.684 1151.93 647.758 1154.3 647.758C1156.68 647.758 1158.61 649.684 1158.61 652.061ZM1154.3 697.242C1156.68 697.242 1158.61 695.316 1158.61 692.939C1158.61 690.563 1156.68 688.636 1154.3 688.636C1151.93 688.636 1150 690.563 1150 692.939C1150 695.316 1151.93 697.242 1154.3 697.242ZM1158.61 733.818C1158.61 736.195 1156.68 738.121 1154.3 738.121C1151.93 738.121 1150 736.195 1150 733.818C1150 731.442 1151.93 729.515 1154.3 729.515C1156.68 729.515 1158.61 731.442 1158.61 733.818ZM1154.3 779C1156.68 779 1158.61 777.073 1158.61 774.697C1158.61 772.32 1156.68 770.394 1154.3 770.394C1151.93 770.394 1150 772.32 1150 774.697C1150 777.073 1151.93 779 1154.3 779ZM1195.18 615.485C1197.56 615.485 1199.48 613.558 1199.48 611.182C1199.48 608.805 1197.56 606.879 1195.18 606.879C1192.81 606.879 1190.88 608.805 1190.88 611.182C1190.88 613.558 1192.81 615.485 1195.18 615.485ZM1199.48 652.061C1199.48 654.437 1197.56 656.364 1195.18 656.364C1192.81 656.364 1190.88 654.437 1190.88 652.061C1190.88 649.684 1192.81 647.758 1195.18 647.758C1197.56 647.758 1199.48 649.684 1199.48 652.061ZM1236.06 656.364C1238.44 656.364 1240.36 654.437 1240.36 652.061C1240.36 649.684 1238.44 647.758 1236.06 647.758C1233.68 647.758 1231.76 649.684 1231.76 652.061C1231.76 654.437 1233.68 656.364 1236.06 656.364ZM1281.24 652.061C1281.24 654.437 1279.32 656.364 1276.94 656.364C1274.56 656.364 1272.64 654.437 1272.64 652.061C1272.64 649.684 1274.56 647.758 1276.94 647.758C1279.32 647.758 1281.24 649.684 1281.24 652.061ZM1317.82 656.364C1320.19 656.364 1322.12 654.437 1322.12 652.061C1322.12 649.684 1320.19 647.758 1317.82 647.758C1315.44 647.758 1313.52 649.684 1313.52 652.061C1313.52 654.437 1315.44 656.364 1317.82 656.364ZM1363 652.061C1363 654.437 1361.07 656.364 1358.7 656.364C1356.32 656.364 1354.39 654.437 1354.39 652.061C1354.39 649.684 1356.32 647.758 1358.7 647.758C1361.07 647.758 1363 649.684 1363 652.061ZM1195.18 697.242C1197.56 697.242 1199.48 695.316 1199.48 692.939C1199.48 690.563 1197.56 688.636 1195.18 688.636C1192.81 688.636 1190.88 690.563 1190.88 692.939C1190.88 695.316 1192.81 697.242 1195.18 697.242ZM1199.48 733.818C1199.48 736.195 1197.56 738.121 1195.18 738.121C1192.81 738.121 1190.88 736.195 1190.88 733.818C1190.88 731.442 1192.81 729.515 1195.18 729.515C1197.56 729.515 1199.48 731.442 1199.48 733.818ZM1195.18 779C1197.56 779 1199.48 777.073 1199.48 774.697C1199.48 772.32 1197.56 770.394 1195.18 770.394C1192.81 770.394 1190.88 772.32 1190.88 774.697C1190.88 777.073 1192.81 779 1195.18 779ZM1240.36 570.303C1240.36 572.68 1238.44 574.606 1236.06 574.606C1233.68 574.606 1231.76 572.68 1231.76 570.303C1231.76 567.927 1233.68 566 1236.06 566C1238.44 566 1240.36 567.927 1240.36 570.303ZM1236.06 615.485C1238.44 615.485 1240.36 613.558 1240.36 611.182C1240.36 608.805 1238.44 606.879 1236.06 606.879C1233.68 606.879 1231.76 608.805 1231.76 611.182C1231.76 613.558 1233.68 615.485 1236.06 615.485ZM1240.36 692.939C1240.36 695.316 1238.44 697.242 1236.06 697.242C1233.68 697.242 1231.76 695.316 1231.76 692.939C1231.76 690.563 1233.68 688.636 1236.06 688.636C1238.44 688.636 1240.36 690.563 1240.36 692.939ZM1236.06 738.121C1238.44 738.121 1240.36 736.195 1240.36 733.818C1240.36 731.442 1238.44 729.515 1236.06 729.515C1233.68 729.515 1231.76 731.442 1231.76 733.818C1231.76 736.195 1233.68 738.121 1236.06 738.121ZM1240.36 774.697C1240.36 777.073 1238.44 779 1236.06 779C1233.68 779 1231.76 777.073 1231.76 774.697C1231.76 772.32 1233.68 770.394 1236.06 770.394C1238.44 770.394 1240.36 772.32 1240.36 774.697ZM1276.94 574.606C1279.32 574.606 1281.24 572.68 1281.24 570.303C1281.24 567.927 1279.32 566 1276.94 566C1274.56 566 1272.64 567.927 1272.64 570.303C1272.64 572.68 1274.56 574.606 1276.94 574.606ZM1281.24 611.182C1281.24 613.558 1279.32 615.485 1276.94 615.485C1274.56 615.485 1272.64 613.558 1272.64 611.182C1272.64 608.805 1274.56 606.879 1276.94 606.879C1279.32 606.879 1281.24 608.805 1281.24 611.182ZM1276.94 697.242C1279.32 697.242 1281.24 695.316 1281.24 692.939C1281.24 690.563 1279.32 688.636 1276.94 688.636C1274.56 688.636 1272.64 690.563 1272.64 692.939C1272.64 695.316 1274.56 697.242 1276.94 697.242ZM1281.24 733.818C1281.24 736.195 1279.32 738.121 1276.94 738.121C1274.56 738.121 1272.64 736.195 1272.64 733.818C1272.64 731.442 1274.56 729.515 1276.94 729.515C1279.32 729.515 1281.24 731.442 1281.24 733.818ZM1276.94 779C1279.32 779 1281.24 777.073 1281.24 774.697C1281.24 772.32 1279.32 770.394 1276.94 770.394C1274.56 770.394 1272.64 772.32 1272.64 774.697C1272.64 777.073 1274.56 779 1276.94 779ZM1322.12 570.303C1322.12 572.68 1320.19 574.606 1317.82 574.606C1315.44 574.606 1313.52 572.68 1313.52 570.303C1313.52 567.927 1315.44 566 1317.82 566C1320.19 566 1322.12 567.927 1322.12 570.303ZM1317.82 615.485C1320.19 615.485 1322.12 613.558 1322.12 611.182C1322.12 608.805 1320.19 606.879 1317.82 606.879C1315.44 606.879 1313.52 608.805 1313.52 611.182C1313.52 613.558 1315.44 615.485 1317.82 615.485ZM1322.12 692.939C1322.12 695.316 1320.19 697.242 1317.82 697.242C1315.44 697.242 1313.52 695.316 1313.52 692.939C1313.52 690.563 1315.44 688.636 1317.82 688.636C1320.19 688.636 1322.12 690.563 1322.12 692.939ZM1317.82 738.121C1320.19 738.121 1322.12 736.195 1322.12 733.818C1322.12 731.442 1320.19 729.515 1317.82 729.515C1315.44 729.515 1313.52 731.442 1313.52 733.818C1313.52 736.195 1315.44 738.121 1317.82 738.121ZM1322.12 774.697C1322.12 777.073 1320.19 779 1317.82 779C1315.44 779 1313.52 777.073 1313.52 774.697C1313.52 772.32 1315.44 770.394 1317.82 770.394C1320.19 770.394 1322.12 772.32 1322.12 774.697ZM1358.7 574.606C1361.07 574.606 1363 572.68 1363 570.303C1363 567.927 1361.07 566 1358.7 566C1356.32 566 1354.39 567.927 1354.39 570.303C1354.39 572.68 1356.32 574.606 1358.7 574.606ZM1363 611.182C1363 613.558 1361.07 615.485 1358.7 615.485C1356.32 615.485 1354.39 613.558 1354.39 611.182C1354.39 608.805 1356.32 606.879 1358.7 606.879C1361.07 606.879 1363 608.805 1363 611.182ZM1358.7 697.242C1361.07 697.242 1363 695.316 1363 692.939C1363 690.563 1361.07 688.636 1358.7 688.636C1356.32 688.636 1354.39 690.563 1354.39 692.939C1354.39 695.316 1356.32 697.242 1358.7 697.242ZM1363 733.818C1363 736.195 1361.07 738.121 1358.7 738.121C1356.32 738.121 1354.39 736.195 1354.39 733.818C1354.39 731.442 1356.32 729.515 1358.7 729.515C1361.07 729.515 1363 731.442 1363 733.818ZM1358.7 779C1361.07 779 1363 777.073 1363 774.697C1363 772.32 1361.07 770.394 1358.7 770.394C1356.32 770.394 1354.39 772.32 1354.39 774.697C1354.39 777.073 1356.32 779 1358.7 779Z" fill="url(#paint0_linear)"/>
<circle cx="207" cy="779" r="60" fill="#FBD928" fill-opacity="0.4"/>
<circle cx="207" cy="779" r="16.2914" fill="#FBD928"/>
<circle opacity="0.3" cx="1336" cy="129" r="27" fill="#654CF0"/>
<circle cx="1336" cy="129" r="8.96027" fill="#654CF0"/>
<defs>
<linearGradient id="paint0_linear" x1="1256.5" y1="566" x2="1256.5" y2="779" gradientUnits="userSpaceOnUse">
<stop stop-color="#E0DDF7"/>
<stop offset="1" stop-color="#E0DDF7" stop-opacity="0"/>
</linearGradient>
</defs>
</svg>
