<svg width="77" height="70" viewBox="0 0 77 70" fill="none" xmlns="http://www.w3.org/2000/svg">
<circle opacity="0.9" cx="34.276" cy="34.276" r="34.276" fill="#F1F0F8"/>
<circle cx="59.69" cy="52.138" r="17.138" fill="#03F5A9"/>
<mask id="path-3-inside-1" fill="white">
<rect x="5.3999" y="13" width="60.2" height="46.3077" rx="1.85231"/>
</mask>
<rect x="5.3999" y="13" width="60.2" height="46.3077" rx="1.85231" stroke="#654CF0" stroke-width="6.56727" mask="url(#path-3-inside-1)"/>
<path d="M46.4456 39.9848C46.4456 36.9623 48.8958 34.512 51.9184 34.512H63.9584L63.9586 45.4575H51.9184C48.8959 45.4575 46.4457 43.0073 46.4456 39.9848Z" stroke="#654CF0" stroke-width="3.28364"/>
<path d="M53.9927 39.9849C53.9927 41.0079 53.1634 41.8372 52.1404 41.8372C51.1174 41.8372 50.2881 41.0079 50.2881 39.9849C50.2881 38.9619 51.1174 38.1326 52.1404 38.1326C53.1634 38.1326 53.9927 38.9619 53.9927 39.9849Z" fill="#654CF0"/>
<path d="M5.3999 22.8929L63.7476 22.8929" stroke="#654CF0" stroke-width="3.28364"/>
</svg>
