<svg width="164" height="33" viewBox="0 0 164 33" fill="none" xmlns="http://www.w3.org/2000/svg">
<path d="M86.5388 1.62256C88.7125 1.62256 90.1749 3.84915 89.3114 5.844L79.7286 27.9826C79.131 29.3632 77.7703 30.2569 76.2659 30.2569H74.6821C73.1751 30.2569 71.8125 29.3608 71.2156 27.9771L61.822 6.20402C60.8874 4.03776 62.4758 1.62256 64.8351 1.62256V1.62256C66.1504 1.62256 67.3386 2.40792 67.8541 3.61799L75.7171 22.0757L83.7652 3.44567C84.2433 2.33909 85.3334 1.62256 86.5388 1.62256V1.62256Z" fill="#654CF0"/>
<path d="M93.5295 4.93597C93.5295 3.10602 95.013 1.62256 96.8429 1.62256V1.62256C98.6729 1.62256 100.156 3.10602 100.156 4.93597V26.9435C100.156 28.7735 98.6729 30.2569 96.8429 30.2569V30.2569C95.013 30.2569 93.5295 28.7735 93.5295 26.9435V4.93597Z" fill="#654CF0"/>
<path d="M105.684 18.7418C105.684 17.3298 106.828 16.1852 108.24 16.1852H114.704C116.116 16.1852 117.26 17.3298 117.26 18.7418V18.7418C117.26 20.1538 116.116 21.2985 114.704 21.2985H108.24C106.828 21.2985 105.684 20.1538 105.684 18.7418V18.7418Z" fill="#654CF0"/>
<path d="M122.731 4.93597C122.731 3.10602 124.215 1.62256 126.045 1.62256V1.62256C127.874 1.62256 129.358 3.10602 129.358 4.93597V26.9435C129.358 28.7735 127.874 30.2569 126.045 30.2569V30.2569C124.215 30.2569 122.731 28.7735 122.731 26.9435V4.93597Z" fill="#654CF0"/>
<path d="M135.202 6.37951C135.202 3.75232 137.332 1.62256 139.959 1.62256H148.21C151.319 1.62256 154.06 2.22252 156.432 3.42243C158.832 4.59508 160.687 6.2586 161.996 8.41299C163.332 10.5674 164 13.0763 164 15.9397C164 18.8032 163.332 21.3121 161.996 23.4665C160.687 25.6209 158.832 27.298 156.432 28.498C154.06 29.6706 151.319 30.2569 148.21 30.2569H139.959C137.332 30.2569 135.202 28.1272 135.202 25.5V6.37951ZM147.883 24.8164C150.746 24.8164 153.024 24.0255 154.714 22.4438C156.432 20.8349 157.291 18.6668 157.291 15.9397C157.291 13.2127 156.432 11.0583 154.714 9.47656C153.024 7.86758 150.746 7.06309 147.883 7.06309H141.829V24.8164H147.883Z" fill="#654CF0"/>
<path d="M22.7413 8.05486C20.6552 5.87582 17.7153 4.51855 14.4579 4.51855C8.12988 4.51855 3 9.64086 3 15.9595C3 22.2782 8.12988 27.4005 14.4579 27.4005C17.7153 27.4005 20.6552 26.0433 22.7413 23.8642" stroke="#654CF0" stroke-width="5.60833" stroke-linecap="round"/>
<path d="M42.8693 8.60633L43.4613 7.86156L43.4613 7.86156L42.8693 8.60633ZM47.1177 11.9832L47.7097 11.2384L47.1177 11.9832ZM47.1177 19.4309L46.5257 18.6862L46.5257 18.6862L47.1177 19.4309ZM42.8757 22.8027L42.2837 22.0579L42.8757 22.8027ZM41.1467 25.7257L40.2088 25.5655L40.2088 25.5655L41.1467 25.7257ZM41.1427 5.69746L40.2053 5.86045L40.2053 5.86045L41.1427 5.69746ZM42.2773 9.35111L46.5257 12.728L47.7097 11.2384L43.4613 7.86156L42.2773 9.35111ZM46.5257 18.6862L42.2837 22.0579L43.4677 23.5475L47.7097 20.1757L46.5257 18.6862ZM40.2088 25.5655L40.0678 26.3912L41.9434 26.7116L42.0845 25.8858L40.2088 25.5655ZM42.08 5.53446L41.9429 4.74627L40.0683 5.07226L40.2053 5.86045L42.08 5.53446ZM46.5257 12.728C48.4425 14.2516 48.4425 17.1626 46.5257 18.6862L47.7097 20.1757C50.5848 17.8903 50.5848 13.5238 47.7097 11.2384L46.5257 12.728ZM43.4613 7.86156C42.7313 7.2813 42.2398 6.4532 42.08 5.53446L40.2053 5.86045C40.445 7.23857 41.1823 8.48072 42.2773 9.35111L43.4613 7.86156ZM42.2837 22.0579C41.1841 22.932 40.4453 24.1808 40.2088 25.5655L42.0845 25.8858C42.2421 24.9627 42.7346 24.1302 43.4677 23.5475L42.2837 22.0579Z" fill="#03F5A9"/>
<path d="M46.2835 22.8545L46.8755 22.1097L46.8755 22.1097L46.2835 22.8545ZM41.9728 19.428L41.3808 20.1728L41.3808 20.1728L41.9728 19.428ZM41.9244 12.0193L41.3227 11.2824L41.3227 11.2824L41.9244 12.0193ZM46.3519 8.40463L46.9535 9.1416L46.9535 9.1416L46.3519 8.40463ZM48.0196 5.59291L47.0844 5.41828L48.0196 5.59291ZM48.0102 25.7634L48.9475 25.6004L48.9475 25.6004L48.0102 25.7634ZM46.8755 22.1097L42.5648 18.6833L41.3808 20.1728L45.6915 23.5993L46.8755 22.1097ZM42.526 12.7563L46.9535 9.1416L45.7502 7.66766L41.3227 11.2824L42.526 12.7563ZM48.9548 5.76753L49.0824 5.08405L47.212 4.7348L47.0844 5.41828L48.9548 5.76753ZM47.0728 25.9264L47.2099 26.7145L49.0845 26.3886L48.9475 25.6004L47.0728 25.9264ZM42.5648 18.6833C40.664 17.1724 40.6452 14.2919 42.526 12.7563L41.3227 11.2824C38.5014 13.5858 38.5296 17.9065 41.3808 20.1728L42.5648 18.6833ZM45.6915 23.5993C46.4215 24.1795 46.9131 25.0076 47.0728 25.9264L48.9475 25.6004C48.7078 24.2222 47.9705 22.9801 46.8755 22.1097L45.6915 23.5993ZM46.9535 9.1416C47.9983 8.28865 48.7073 7.09333 48.9548 5.76753L47.0844 5.41828C46.9193 6.30214 46.4467 7.09903 45.7502 7.66766L46.9535 9.1416Z" fill="#654CF0"/>
<path fill-rule="evenodd" clip-rule="evenodd" d="M50.9359 1.52946C49.5053 0.867628 47.809 1.49088 47.1471 2.92152C46.4853 4.35217 47.1086 6.04845 48.5392 6.71028C49.7015 7.24796 50.7465 8.0093 51.6145 8.95083C52.4826 9.89236 53.1567 10.9956 53.5983 12.1977C54.04 13.3997 54.2405 14.677 54.1886 15.9566C54.1376 17.2113 53.8448 18.4441 53.3265 19.5874C53.3157 19.6093 53.3051 19.6315 53.2948 19.6538C52.7571 20.8161 51.9957 21.8611 51.0542 22.7291C50.1127 23.5972 49.0094 24.2713 47.8073 24.7129C46.6053 25.1546 45.328 25.3551 44.0485 25.3032C42.7689 25.2512 41.5121 24.9477 40.3498 24.41C38.9192 23.7482 37.2229 24.3715 36.5611 25.8021C35.8992 27.2328 36.5225 28.929 37.9531 29.5909C39.7958 30.4433 41.7883 30.9244 43.8168 31.0068C45.8454 31.0892 47.8703 30.7712 49.776 30.071C51.6817 29.3708 53.4308 28.3021 54.9235 26.926C56.393 25.5712 57.5856 23.9445 58.4356 22.1361C58.4496 22.1084 58.4631 22.0803 58.4763 22.0519C59.3287 20.2093 59.8098 18.2168 59.8922 16.1882C59.9746 14.1596 59.6566 12.1347 58.9564 10.229C58.2562 8.32333 57.1876 6.57422 55.8114 5.08154C54.4352 3.58887 52.7785 2.38187 50.9359 1.52946Z" fill="url(#paint0_linear)"/>
<mask id="path-7-inside-1" fill="white">
<path fill-rule="evenodd" clip-rule="evenodd" d="M35.399 11.3189C35.392 11.3348 35.3849 11.3506 35.3776 11.3664C34.8399 12.5286 34.5364 13.7854 34.4844 15.065C34.4325 16.3445 34.633 17.6218 35.0747 18.8239C35.5164 20.0259 36.1904 21.1292 37.0585 22.0707C37.9265 23.0123 38.9715 23.7736 40.1338 24.3113C41.5644 24.9731 42.1877 26.6694 41.5259 28.1C40.864 29.5307 39.1677 30.1539 37.7371 29.4921C35.8945 28.6397 34.2378 27.4327 32.8616 25.94C31.4855 24.4473 30.4168 22.6982 29.7166 20.7925C29.0164 18.8869 28.6984 16.8619 28.7808 14.8334C28.8623 12.8265 29.3341 10.855 30.1695 9.0289C30.1782 9.0089 30.1872 8.98894 30.1964 8.96904C31.0488 7.12641 32.2558 5.46972 33.7485 4.09355C35.2411 2.71739 36.9902 1.64871 38.8959 0.948518C40.8016 0.24833 42.8265 -0.0696502 44.8551 0.0127342C46.8837 0.0951193 48.8762 0.576255 50.7188 1.42867C52.1494 2.0905 52.7727 3.78678 52.1109 5.21743C51.449 6.64807 49.7528 7.27132 48.3221 6.6095C47.1598 6.07182 45.903 5.76833 44.6235 5.71637C43.3439 5.6644 42.0667 5.86497 40.8646 6.30663C39.6626 6.74829 38.5593 7.42238 37.6177 8.29042C36.6889 9.14679 35.9354 10.1754 35.399 11.3189Z"/>
</mask>
<path d="M35.399 11.3189L18.8639 3.5631L18.7741 3.75455L18.6888 3.94803L35.399 11.3189ZM35.3776 11.3664L18.8017 3.69802L18.8016 3.69821L35.3776 11.3664ZM34.4844 15.065L52.7331 15.8061L52.7331 15.8061L34.4844 15.065ZM35.0747 18.8239L17.9315 25.1226L17.9316 25.1226L35.0747 18.8239ZM37.0585 22.0707L23.6307 34.4504L23.6307 34.4504L37.0585 22.0707ZM40.1338 24.3113L32.4656 40.8872L32.4656 40.8872L40.1338 24.3113ZM41.5259 28.1L58.1018 35.7682L58.1018 35.7682L41.5259 28.1ZM37.7371 29.4921L45.4053 12.9162L45.4053 12.9162L37.7371 29.4921ZM32.8616 25.94L19.4338 38.3197L19.4338 38.3197L32.8616 25.94ZM29.7166 20.7925L12.5734 27.0913L12.5734 27.0913L29.7166 20.7925ZM28.7808 14.8334L47.0294 15.5745L47.0294 15.5745L28.7808 14.8334ZM30.1695 9.0289L46.7776 16.6271L46.8473 16.4748L46.9141 16.3213L30.1695 9.0289ZM30.1964 8.96904L46.7723 16.6372L46.7723 16.6372L30.1964 8.96904ZM33.7485 4.09355L21.3688 -9.33423L21.3688 -9.33422L33.7485 4.09355ZM38.8959 0.948518L45.1947 18.0917L45.1947 18.0917L38.8959 0.948518ZM44.8551 0.0127342L45.5962 -18.2359L45.5962 -18.2359L44.8551 0.0127342ZM50.7188 1.42867L58.387 -15.1473L58.387 -15.1473L50.7188 1.42867ZM52.1109 5.21743L35.535 -2.45074L35.5349 -2.45072L52.1109 5.21743ZM48.3221 6.6095L40.654 23.1854L40.654 23.1854L48.3221 6.6095ZM44.6235 5.71637L43.8824 23.965L43.8824 23.965L44.6235 5.71637ZM40.8646 6.30663L34.5659 -10.8365L34.5659 -10.8365L40.8646 6.30663ZM37.6177 8.29042L25.2381 -5.13735L25.2381 -5.13735L37.6177 8.29042ZM18.6888 3.94803C18.7255 3.8647 18.7632 3.78136 18.8017 3.69802L51.9534 19.0347C52.0066 18.9198 52.0585 18.8048 52.1092 18.6898L18.6888 3.94803ZM18.8016 3.69821C17.257 7.03725 16.3851 10.6479 16.2358 14.3239L52.7331 15.8061C52.6877 16.923 52.4228 18.02 51.9535 19.0345L18.8016 3.69821ZM16.2358 14.3239C16.0865 17.9999 16.6627 21.6693 17.9315 25.1226L52.2178 12.5251C52.6033 13.5743 52.7784 14.6892 52.7331 15.8061L16.2358 14.3239ZM17.9316 25.1226C19.2004 28.5759 21.1369 31.7455 23.6307 34.4504L50.4863 9.69105C51.2439 10.5129 51.8323 11.4759 52.2178 12.5251L17.9316 25.1226ZM23.6307 34.4504C26.1245 37.1553 29.1266 39.3425 32.4656 40.8872L47.802 7.73536C48.8165 8.20467 49.7286 8.86922 50.4863 9.69105L23.6307 34.4504ZM32.4656 40.8872C24.7417 37.314 21.3768 28.1559 24.9499 20.4319L58.1018 35.7682C62.9986 25.1829 58.3872 12.6322 47.8019 7.73535L32.4656 40.8872ZM24.9499 20.4319C28.5231 12.7079 37.6813 9.343 45.4053 12.9162L30.0689 46.068C40.6542 50.9649 53.205 46.3535 58.1018 35.7682L24.9499 20.4319ZM45.4053 12.9162C45.7394 13.0708 46.0398 13.2896 46.2894 13.5603L19.4338 38.3197C22.4357 41.5757 26.0495 44.2086 30.069 46.068L45.4053 12.9162ZM46.2894 13.5603C46.539 13.831 46.7328 14.1482 46.8597 14.4938L12.5734 27.0913C14.1008 31.2482 16.4319 35.0637 19.4338 38.3197L46.2894 13.5603ZM46.8597 14.4938C46.9867 14.8394 47.0444 15.2066 47.0294 15.5745L10.5322 14.0922C10.3525 18.5173 11.0461 22.9343 12.5734 27.0913L46.8597 14.4938ZM47.0294 15.5745C47.0147 15.9384 46.9291 16.2959 46.7776 16.6271L13.5614 1.43071C11.739 5.41398 10.71 9.71457 10.5322 14.0922L47.0294 15.5745ZM46.9141 16.3213C46.868 16.4271 46.8208 16.5324 46.7723 16.6372L13.6204 1.30089C13.5536 1.44547 13.4884 1.59067 13.4249 1.73646L46.9141 16.3213ZM46.7723 16.6372C46.6177 16.9713 46.3988 17.2718 46.1281 17.5213L21.3688 -9.33422C18.1127 -6.33234 15.4799 -2.71853 13.6204 1.30089L46.7723 16.6372ZM46.1281 17.5213C45.8574 17.7709 45.5403 17.9647 45.1947 18.0917L32.5972 -16.1946C28.4402 -14.6673 24.6248 -12.3361 21.3688 -9.33423L46.1281 17.5213ZM45.1947 18.0917C44.8491 18.2186 44.4819 18.2763 44.114 18.2614L45.5962 -18.2359C41.1712 -18.4156 36.7541 -17.722 32.5972 -16.1946L45.1947 18.0917ZM44.114 18.2614C43.7461 18.2464 43.3848 18.1592 43.0507 18.0046L58.387 -15.1473C54.3675 -17.0067 50.0213 -18.0562 45.5962 -18.2359L44.114 18.2614ZM43.0506 18.0046C35.3267 14.4314 31.9618 5.27327 35.535 -2.45074L68.6868 12.8856C73.5836 2.3003 68.9722 -10.2504 58.387 -15.1473L43.0506 18.0046ZM35.5349 -2.45072C39.1081 -10.1747 48.2663 -13.5396 55.9903 -9.96643L40.654 23.1854C51.2392 28.0822 63.79 23.4709 68.6868 12.8856L35.5349 -2.45072ZM55.9903 -9.96643C52.6512 -11.5111 49.0406 -12.383 45.3646 -12.5323L43.8824 23.965C42.7655 23.9196 41.6685 23.6547 40.654 23.1854L55.9903 -9.96643ZM45.3646 -12.5323C41.6886 -12.6816 38.0192 -12.1053 34.5659 -10.8365L47.1633 23.4498C46.1141 23.8353 44.9993 24.0104 43.8824 23.965L45.3646 -12.5323ZM34.5659 -10.8365C31.1125 -9.5677 27.943 -7.63112 25.2381 -5.13735L49.9974 21.7182C49.1756 22.4759 48.2126 23.0643 47.1634 23.4498L34.5659 -10.8365ZM25.2381 -5.13735C22.5695 -2.67711 20.4048 0.277903 18.8639 3.5631L51.9341 19.0747C51.4659 20.0729 50.8082 20.9707 49.9974 21.7182L25.2381 -5.13735Z" fill="url(#paint1_linear)" mask="url(#path-7-inside-1)"/>
<path d="M39.1591 27.0067C40.6531 27.7197 42.2816 28.1132 43.9517 28.1648" stroke="url(#paint2_linear)" stroke-width="5.70833" stroke-linecap="round"/>
<defs>
<linearGradient id="paint0_linear" x1="59.8464" y1="13.0817" x2="50.6809" y2="24.7829" gradientUnits="userSpaceOnUse">
<stop stop-color="#654CF0"/>
<stop offset="1" stop-color="#03F5A9"/>
</linearGradient>
<linearGradient id="paint1_linear" x1="31.7304" y1="25.3658" x2="43.6408" y2="5.7982" gradientUnits="userSpaceOnUse">
<stop stop-color="#654CF0"/>
<stop offset="1" stop-color="#402072"/>
</linearGradient>
<linearGradient id="paint2_linear" x1="58.3116" y1="18.9145" x2="44.0856" y2="27.1595" gradientUnits="userSpaceOnUse">
<stop stop-color="#654CF0" stop-opacity="0"/>
<stop offset="0.0001" stop-color="#0BE8AF" stop-opacity="0.921875"/>
<stop offset="1" stop-color="#03F5A9"/>
</linearGradient>
</defs>
</svg>
